<?xml version="1.0" encoding="UTF-8" standalone="no"?>
<!DOCTYPE svg PUBLIC "-//W3C//DTD SVG 1.1//EN"
 "http://www.w3.org/Graphics/SVG/1.1/DTD/svg11.dtd">
<!-- Generated by graphviz version 2.38.0 (20140413.2041)
 -->
<!-- Title: %3 Pages: 1 -->
<svg width="1573pt" height="292pt"
 viewBox="0.00 0.00 1572.51 291.91" xmlns="http://www.w3.org/2000/svg" xmlns:xlink="http://www.w3.org/1999/xlink">
<g id="graph0" class="graph" transform="scale(1 1) rotate(0) translate(4 287.911)">
<title>%3</title>
<polygon fill="white" stroke="none" points="-4,4 -4,-287.911 1568.51,-287.911 1568.51,4 -4,4"/>
<g id="clust1" class="cluster"><title>cluster_0</title>
<path fill="white" stroke="black" d="M49,-8C49,-8 890.445,-8 890.445,-8 896.445,-8 902.445,-14 902.445,-20 902.445,-20 902.445,-253 902.445,-253 902.445,-259 896.445,-265 890.445,-265 890.445,-265 49,-265 49,-265 43,-265 37,-259 37,-253 37,-253 37,-20 37,-20 37,-14 43,-8 49,-8"/>
<text text-anchor="middle" x="180.5" y="-233" font-family="calibri" font-size="35.00">sm_atomic_mode_states::State1</text>
</g>
<g id="clust2" class="cluster"><title>cluster_orthogonals_block_0</title>
<polygon fill="none" stroke="white" points="57,-114 57,-210 623.764,-210 623.764,-114 57,-114"/>
</g>
<g id="clust3" class="cluster"><title>cluster_Orthogonal_0_0</title>
<polygon fill="white" stroke="black" points="65,-122 65,-202 603.764,-202 603.764,-122 65,-122"/>
<text text-anchor="middle" x="103.5" y="-183.6" font-family="calibri" font-size="18.00">OrTimer</text>
</g>
<g id="clust4" class="cluster"><title>cluster_statereactor_block_id0</title>
<polygon fill="none" stroke="white" points="743.445,-90 743.445,-114 766.445,-114 766.445,-90 743.445,-90"/>
</g>
<g id="clust5" class="cluster"><title>cluster_transition_block_0</title>
<polygon fill="none" stroke="white" points="774.445,-104 774.445,-174 894.445,-174 894.445,-104 774.445,-104"/>
</g>
<g id="clust6" class="cluster"><title>cluster_children_block_id0</title>
<polygon fill="none" stroke="white" points="631.764,-16 631.764,-200 735.445,-200 735.445,-16 631.764,-16"/>
</g>
<g id="clust7" class="cluster"><title>cluster_1</title>
<path fill="white" stroke="black" d="M922.445,-8C922.445,-8 1544.51,-8 1544.51,-8 1550.51,-8 1556.51,-14 1556.51,-20 1556.51,-20 1556.51,-253 1556.51,-253 1556.51,-259 1550.51,-265 1544.51,-265 1544.51,-265 922.445,-265 922.445,-265 916.445,-265 910.445,-259 910.445,-253 910.445,-253 910.445,-20 910.445,-20 910.445,-14 916.445,-8 922.445,-8"/>
<text text-anchor="middle" x="1053.94" y="-233" font-family="calibri" font-size="35.00">sm_atomic_mode_states::State2</text>
</g>
<g id="clust8" class="cluster"><title>cluster_orthogonals_block_1</title>
<polygon fill="none" stroke="white" points="930.445,-114 930.445,-210 1277.83,-210 1277.83,-114 930.445,-114"/>
</g>
<g id="clust9" class="cluster"><title>cluster_Orthogonal_1_0</title>
<polygon fill="white" stroke="black" points="938.445,-122 938.445,-202 1257.83,-202 1257.83,-122 938.445,-122"/>
<text text-anchor="middle" x="976.945" y="-183.6" font-family="calibri" font-size="18.00">OrTimer</text>
</g>
<g id="clust10" class="cluster"><title>cluster_statereactor_block_id1</title>
<polygon fill="none" stroke="white" points="1397.51,-46 1397.51,-70 1420.51,-70 1420.51,-46 1397.51,-46"/>
</g>
<g id="clust11" class="cluster"><title>cluster_transition_block_1</title>
<polygon fill="none" stroke="white" points="1428.51,-16 1428.51,-86 1548.51,-86 1548.51,-16 1428.51,-16"/>
</g>
<g id="clust12" class="cluster"><title>cluster_children_block_id1</title>
<polygon fill="none" stroke="white" points="1285.83,-16 1285.83,-200 1389.51,-200 1389.51,-16 1285.83,-16"/>
</g>
<!-- entry_0 -->
<g id="node1" class="node"><title>entry_0</title>
<ellipse fill="black" stroke="black" cx="47" cy="-83" rx="2" ry="2"/>
</g>
<!-- ClRosTimer_0 -->
<g id="node2" class="node"><title>ClRosTimer_0</title>
<polygon fill="lightgrey" stroke="black" points="157,-166 73,-166 73,-130 157,-130 157,-166"/>
<text text-anchor="middle" x="115" y="-144.3" font-family="Times,serif" font-size="14.00">ClRosTimer</text>
</g>
<!-- entry_0&#45;&gt;ClRosTimer_0 -->
<!-- CbTimerCountdownLoop_0 -->
<g id="node3" class="node"><title>CbTimerCountdownLoop_0</title>
<ellipse fill="lightgrey" stroke="black" cx="273.691" cy="-148" rx="102.882" ry="18"/>
<text text-anchor="middle" x="273.691" y="-144.3" font-family="Times,serif" font-size="14.00">CbTimerCountdownLoop</text>
</g>
<!-- ClRosTimer_0&#45;&gt;CbTimerCountdownLoop_0 -->
<!-- CbTimerCountdownOnce_0 -->
<g id="node4" class="node"><title>CbTimerCountdownOnce_0</title>
<ellipse fill="lightgrey" stroke="black" cx="493.073" cy="-148" rx="102.882" ry="18"/>
<text text-anchor="middle" x="493.073" y="-144.3" font-family="Times,serif" font-size="14.00">CbTimerCountdownOnce</text>
</g>
<!-- CbTimerCountdownLoop_0&#45;&gt;CbTimerCountdownOnce_0 -->
<!-- exit_orthogonal_node0 -->
<!-- CbTimerCountdownOnce_0&#45;&gt;exit_orthogonal_node0 -->
<!-- EvTimer_sm_atomic::State2_0 -->
<g id="node7" class="node"><title>EvTimer_sm_atomic::State2_0</title>
<path fill="#99ff99" stroke="black" d="M874.445,-166C874.445,-166 794.445,-166 794.445,-166 788.445,-166 782.445,-160 782.445,-154 782.445,-154 782.445,-142 782.445,-142 782.445,-136 788.445,-130 794.445,-130 794.445,-130 874.445,-130 874.445,-130 880.445,-130 886.445,-136 886.445,-142 886.445,-142 886.445,-154 886.445,-154 886.445,-160 880.445,-166 874.445,-166"/>
<text text-anchor="middle" x="834.445" y="-143" font-family="Times,serif" font-size="20.00">SUCCESS</text>
</g>
<!-- CbTimerCountdownOnce_0&#45;&gt;EvTimer_sm_atomic::State2_0 -->
<g id="edge14" class="edge"><title>CbTimerCountdownOnce_0:e&#45;&gt;EvTimer_sm_atomic::State2_0:w</title>
<path fill="none" stroke="#22aa22" stroke-width="2" d="M597.073,-148C622.804,-148 591.391,-188.282 611.764,-204 630.525,-218.475 453.401,-336.337 735.445,-203 760.653,-191.083 752.568,-157.911 771.501,-149.805"/>
<polygon fill="#22aa22" stroke="#22aa22" stroke-width="2" points="772.23,-153.229 781.445,-148 770.981,-146.342 772.23,-153.229"/>
<text text-anchor="middle" x="773.551" y="-179.601" font-family="Times,serif" font-size="14.00">EvTimer</text>
</g>
<!-- children_block_id0 -->
<!-- exit_orthogonal_node0&#45;&gt;children_block_id0 -->
<!-- statereactor_block_id0 -->
<!-- statereactor_block_id0&#45;&gt;EvTimer_sm_atomic::State2_0 -->
<!-- entry_1 -->
<g id="node12" class="node"><title>entry_1</title>
<ellipse fill="black" stroke="black" cx="920.445" cy="-148" rx="2" ry="2"/>
</g>
<!-- EvTimer_sm_atomic::State2_0&#45;&gt;entry_1 -->
<g id="edge13" class="edge"><title>EvTimer_sm_atomic::State2_0:e&#45;&gt;entry_1:w</title>
<path fill="none" stroke="#22aa22" stroke-width="2" d="M887.445,-148C896.611,-148 901.052,-148 907.264,-148"/>
<polygon fill="#22aa22" stroke="#22aa22" stroke-width="2" points="907.445,-151.5 917.445,-148 907.445,-144.5 907.445,-151.5"/>
</g>
<!-- cluster_transition_block_exit_0 -->
<!-- children_end_block_id0 -->
<!-- children_end_block_id0&#45;&gt;statereactor_block_id0 -->
<!-- initial_sm_node -->
<g id="node11" class="node"><title>initial_sm_node</title>
<ellipse fill="black" stroke="black" cx="14.5" cy="-83" rx="14.5" ry="14.5"/>
</g>
<!-- initial_sm_node&#45;&gt;entry_0 -->
<g id="edge6" class="edge"><title>initial_sm_node&#45;&gt;entry_0</title>
<path fill="none" stroke="black" d="M29.3222,-83C31.0244,-83 32.7506,-83 34.4149,-83"/>
<polygon fill="black" stroke="black" points="27.0001,-86.5004 37,-83 26.9999,-79.5004 27.0001,-86.5004"/>
</g>
<!-- ClRosTimer_1 -->
<g id="node13" class="node"><title>ClRosTimer_1</title>
<polygon fill="lightgrey" stroke="black" points="1030.44,-166 946.445,-166 946.445,-130 1030.44,-130 1030.44,-166"/>
<text text-anchor="middle" x="988.445" y="-144.3" font-family="Times,serif" font-size="14.00">ClRosTimer</text>
</g>
<!-- entry_1&#45;&gt;ClRosTimer_1 -->
<!-- CbTimerCountdownOnce_1 -->
<g id="node14" class="node"><title>CbTimerCountdownOnce_1</title>
<ellipse fill="lightgrey" stroke="black" cx="1147.14" cy="-148" rx="102.882" ry="18"/>
<text text-anchor="middle" x="1147.14" y="-144.3" font-family="Times,serif" font-size="14.00">CbTimerCountdownOnce</text>
</g>
<!-- ClRosTimer_1&#45;&gt;CbTimerCountdownOnce_1 -->
<!-- exit_orthogonal_node1 -->
<!-- CbTimerCountdownOnce_1&#45;&gt;exit_orthogonal_node1 -->
<!-- EvTimer_sm_atomic::State1_1 -->
<g id="node17" class="node"><title>EvTimer_sm_atomic::State1_1</title>
<path fill="#99ff99" stroke="black" d="M1528.51,-78C1528.51,-78 1448.51,-78 1448.51,-78 1442.51,-78 1436.51,-72 1436.51,-66 1436.51,-66 1436.51,-54 1436.51,-54 1436.51,-48 1442.51,-42 1448.51,-42 1448.51,-42 1528.51,-42 1528.51,-42 1534.51,-42 1540.51,-48 1540.51,-54 1540.51,-54 1540.51,-66 1540.51,-66 1540.51,-72 1534.51,-78 1528.51,-78"/>
<text text-anchor="middle" x="1488.51" y="-55" font-family="Times,serif" font-size="20.00">SUCCESS</text>
</g>
<!-- CbTimerCountdownOnce_1&#45;&gt;EvTimer_sm_atomic::State1_1 -->
<g id="edge18" class="edge"><title>CbTimerCountdownOnce_1:e&#45;&gt;EvTimer_sm_atomic::State1_1:w</title>
<path fill="none" stroke="#22aa22" stroke-width="2" d="M1251.14,-148C1276.87,-148 1245.45,-188.282 1265.83,-204 1289.87,-222.553 1156.66,-374.295 1389.51,-203 1401.06,-194.5 1414.4,-95.0003 1428.52,-67.184"/>
<polygon fill="#22aa22" stroke="#22aa22" stroke-width="2" points="1431.04,-69.6087 1435.51,-60 1426.03,-64.7278 1431.04,-69.6087"/>
<text text-anchor="middle" x="1437.6" y="-108.596" font-family="Times,serif" font-size="14.00">EvTimer</text>
</g>
<!-- children_block_id1 -->
<!-- exit_orthogonal_node1&#45;&gt;children_block_id1 -->
<!-- statereactor_block_id1 -->
<!-- statereactor_block_id1&#45;&gt;EvTimer_sm_atomic::State1_1 -->
<!-- EvTimer_sm_atomic::State1_1&#45;&gt;entry_0 -->
<g id="edge17" class="edge"><title>EvTimer_sm_atomic::State1_1:e&#45;&gt;entry_0:w</title>
<path fill="none" stroke="#22aa22" stroke-width="2" d="M1541.51,-60C1549.52,-60 1546.33,-72.4938 1540.51,-78 1506.93,-109.765 1475.4,-102.982 1436.51,-78 1422.12,-68.7557 1430.38,-56.9672 1420.51,-43 1409.44,-27.3431 1406.24,-22.3543 1389.51,-13 1369.15,-1.62101 1361.99,-0 1338.67,-0 272.691,-0 272.691,-0 272.691,-0 166.337,-7.10543e-15 153.606,-65.7954 49,-85 48.8907,-85.0201 48.7854,-85.0413 48.6833,-85.0627"/>
<polygon fill="#22aa22" stroke="#22aa22" stroke-width="2" points="54.5625,-83.8277 44,-83 51.7409,-90.2339 54.5625,-83.8277"/>
</g>
<!-- cluster_transition_block_exit_1 -->
<!-- children_end_block_id1 -->
<!-- children_end_block_id1&#45;&gt;statereactor_block_id1 -->
</g>
</svg>
