<?xml version="1.0" encoding="UTF-8" standalone="no"?>
<!DOCTYPE svg PUBLIC "-//W3C//DTD SVG 1.1//EN"
 "http://www.w3.org/Graphics/SVG/1.1/DTD/svg11.dtd">
<!-- Generated by graphviz version 2.40.1 (20161225.0304)
 -->
<!-- Title: %3 Pages: 1 -->
<svg width="1911pt" height="281pt"
 viewBox="0.00 0.00 1910.71 280.91" xmlns="http://www.w3.org/2000/svg" xmlns:xlink="http://www.w3.org/1999/xlink">
<g id="graph0" class="graph" transform="scale(1 1) rotate(0) translate(4 276.9082)">
<title>%3</title>
<polygon fill="#ffffff" stroke="transparent" points="-4,4 -4,-276.9082 1906.7096,-276.9082 1906.7096,4 -4,4"/>
<g id="clust1" class="cluster">
<title>cluster_0</title>
<path fill="#ffffff" stroke="#000000" d="M76,-17.9082C76,-17.9082 914.063,-17.9082 914.063,-17.9082 920.063,-17.9082 926.063,-23.9082 926.063,-29.9082 926.063,-29.9082 926.063,-252.9082 926.063,-252.9082 926.063,-258.9082 920.063,-264.9082 914.063,-264.9082 914.063,-264.9082 76,-264.9082 76,-264.9082 70,-264.9082 64,-258.9082 64,-252.9082 64,-252.9082 64,-29.9082 64,-29.9082 64,-23.9082 70,-17.9082 76,-17.9082"/>
<text text-anchor="middle" x="130" y="-232.9082" font-family="calibri" font-size="35.00" fill="#000000">State1</text>
</g>
<g id="clust2" class="cluster">
<title>cluster_orthogonals_block_0</title>
<polygon fill="none" stroke="#ffffff" points="103,-25.9082 103,-209.9082 527.3818,-209.9082 527.3818,-25.9082 103,-25.9082"/>
</g>
<g id="clust3" class="cluster">
<title>cluster_Orthogonal_0_0</title>
<polygon fill="#ffffff" stroke="#000000" points="111,-121.9082 111,-201.9082 429.1909,-201.9082 429.1909,-121.9082 111,-121.9082"/>
<text text-anchor="middle" x="168.5" y="-183.5082" font-family="calibri" font-size="18.00" fill="#000000">OrServices</text>
</g>
<g id="clust4" class="cluster">
<title>cluster_Orthogonal_0_1</title>
<polygon fill="#ffffff" stroke="#000000" points="121.5,-33.9082 121.5,-113.9082 480.3818,-113.9082 480.3818,-33.9082 121.5,-33.9082"/>
<text text-anchor="middle" x="166.5" y="-95.5082" font-family="calibri" font-size="18.00" fill="#000000">OrTimer</text>
</g>
<g id="clust5" class="cluster">
<title>cluster_statereactor_block_id0</title>
<polygon fill="none" stroke="#ffffff" points="716.563,-54.9082 716.563,-78.9082 739.563,-78.9082 739.563,-54.9082 716.563,-54.9082"/>
</g>
<g id="clust6" class="cluster">
<title>cluster_transition_block_0</title>
<polygon fill="none" stroke="#ffffff" points="798.063,-43.9082 798.063,-113.9082 918.063,-113.9082 918.063,-43.9082 798.063,-43.9082"/>
</g>
<g id="clust7" class="cluster">
<title>cluster_children_block_id0</title>
<polygon fill="none" stroke="#ffffff" points="554.3818,-25.9082 554.3818,-209.9082 658.063,-209.9082 658.063,-25.9082 554.3818,-25.9082"/>
</g>
<g id="clust8" class="cluster">
<title>cluster_1</title>
<path fill="#ffffff" stroke="#000000" d="M957.063,-17.9082C957.063,-17.9082 1876.1318,-17.9082 1876.1318,-17.9082 1882.1318,-17.9082 1888.1318,-23.9082 1888.1318,-29.9082 1888.1318,-29.9082 1888.1318,-252.9082 1888.1318,-252.9082 1888.1318,-258.9082 1882.1318,-264.9082 1876.1318,-264.9082 1876.1318,-264.9082 957.063,-264.9082 957.063,-264.9082 951.063,-264.9082 945.063,-258.9082 945.063,-252.9082 945.063,-252.9082 945.063,-29.9082 945.063,-29.9082 945.063,-23.9082 951.063,-17.9082 957.063,-17.9082"/>
<text text-anchor="middle" x="1011.063" y="-232.9082" font-family="calibri" font-size="35.00" fill="#000000">State2</text>
</g>
<g id="clust9" class="cluster">
<title>cluster_orthogonals_block_1</title>
<polygon fill="none" stroke="#ffffff" points="984.063,-25.9082 984.063,-209.9082 1489.4506,-209.9082 1489.4506,-25.9082 984.063,-25.9082"/>
</g>
<g id="clust10" class="cluster">
<title>cluster_Orthogonal_1_0</title>
<polygon fill="#ffffff" stroke="#000000" points="992.063,-121.9082 992.063,-201.9082 1442.4506,-201.9082 1442.4506,-121.9082 992.063,-121.9082"/>
<text text-anchor="middle" x="1049.563" y="-183.5082" font-family="calibri" font-size="18.00" fill="#000000">OrServices</text>
</g>
<g id="clust11" class="cluster">
<title>cluster_Orthogonal_1_1</title>
<polygon fill="#ffffff" stroke="#000000" points="1002.563,-33.9082 1002.563,-113.9082 1419.0526,-113.9082 1419.0526,-33.9082 1002.563,-33.9082"/>
<text text-anchor="middle" x="1047.563" y="-95.5082" font-family="calibri" font-size="18.00" fill="#000000">OrTimer</text>
</g>
<g id="clust12" class="cluster">
<title>cluster_statereactor_block_id1</title>
<polygon fill="none" stroke="#ffffff" points="1678.6318,-54.9082 1678.6318,-78.9082 1701.6318,-78.9082 1701.6318,-54.9082 1678.6318,-54.9082"/>
</g>
<g id="clust13" class="cluster">
<title>cluster_transition_block_1</title>
<polygon fill="none" stroke="#ffffff" points="1760.1318,-25.9082 1760.1318,-95.9082 1880.1318,-95.9082 1880.1318,-25.9082 1760.1318,-25.9082"/>
</g>
<g id="clust14" class="cluster">
<title>cluster_children_block_id1</title>
<polygon fill="none" stroke="#ffffff" points="1516.4506,-25.9082 1516.4506,-209.9082 1620.1318,-209.9082 1620.1318,-25.9082 1516.4506,-25.9082"/>
</g>
<!-- unknown_source_0 -->
<g id="node1" class="node">
<title>unknown_source_0</title>
<path fill="#88aaff" stroke="#88aaff" d="M751.063,-124.9082C751.063,-124.9082 705.063,-124.9082 705.063,-124.9082 699.063,-124.9082 693.063,-118.9082 693.063,-112.9082 693.063,-112.9082 693.063,-98.9082 693.063,-98.9082 693.063,-92.9082 699.063,-86.9082 705.063,-86.9082 705.063,-86.9082 751.063,-86.9082 751.063,-86.9082 757.063,-86.9082 763.063,-92.9082 763.063,-98.9082 763.063,-98.9082 763.063,-112.9082 763.063,-112.9082 763.063,-118.9082 757.063,-124.9082 751.063,-124.9082"/>
<text text-anchor="middle" x="728.063" y="-109.7082" font-family="Times,serif" font-size="14.00" fill="#000000">Unknown</text>
<text text-anchor="middle" x="728.063" y="-94.7082" font-family="Times,serif" font-size="14.00" fill="#000000">Source</text>
</g>
<!-- EvTimer_sm_atomic_services::State2_0 -->
<g id="node9" class="node">
<title>EvTimer_sm_atomic_services::State2_0</title>
<path fill="#99ff99" stroke="#000000" d="M898.063,-105.9082C898.063,-105.9082 818.063,-105.9082 818.063,-105.9082 812.063,-105.9082 806.063,-99.9082 806.063,-93.9082 806.063,-93.9082 806.063,-81.9082 806.063,-81.9082 806.063,-75.9082 812.063,-69.9082 818.063,-69.9082 818.063,-69.9082 898.063,-69.9082 898.063,-69.9082 904.063,-69.9082 910.063,-75.9082 910.063,-81.9082 910.063,-81.9082 910.063,-93.9082 910.063,-93.9082 910.063,-99.9082 904.063,-105.9082 898.063,-105.9082"/>
<text text-anchor="middle" x="858.063" y="-82.9082" font-family="Times,serif" font-size="20.00" fill="#000000">SUCCESS</text>
</g>
<!-- unknown_source_0&#45;&gt;EvTimer_sm_atomic_services::State2_0 -->
<g id="edge20" class="edge">
<title>unknown_source_0:e&#45;&gt;EvTimer_sm_atomic_services::State2_0:w</title>
<path fill="none" stroke="#22aa22" stroke-width="2" d="M763.063,-105.9082C779.8964,-105.9082 784.0851,-94.0254 796.1768,-89.5693"/>
<polygon fill="#22aa22" stroke="#22aa22" stroke-width="2" points="796.7812,-93.0169 806.063,-87.9082 795.6213,-86.1137 796.7812,-93.0169"/>
<text text-anchor="middle" x="808.8998" y="-100.84" font-family="Times,serif" font-size="14.00" fill="#000000">EvTimer</text>
</g>
<!-- entry_0 -->
<g id="node2" class="node">
<title>entry_0</title>
<ellipse fill="#000000" stroke="#000000" cx="74" cy="-59.9082" rx="2" ry="2"/>
</g>
<!-- ClServiceServer_0 -->
<g id="node3" class="node">
<title>ClServiceServer_0</title>
<polygon fill="#d3d3d3" stroke="#000000" points="224,-165.9082 119,-165.9082 119,-129.9082 224,-129.9082 224,-165.9082"/>
<text text-anchor="middle" x="171.5" y="-144.2082" font-family="Times,serif" font-size="14.00" fill="#000000">ClServiceServer</text>
</g>
<!-- entry_0&#45;&gt;ClServiceServer_0 -->
<!-- ClRosTimer_0 -->
<g id="node5" class="node">
<title>ClRosTimer_0</title>
<polygon fill="#d3d3d3" stroke="#000000" points="213.5,-77.9082 129.5,-77.9082 129.5,-41.9082 213.5,-41.9082 213.5,-77.9082"/>
<text text-anchor="middle" x="171.5" y="-56.2082" font-family="Times,serif" font-size="14.00" fill="#000000">ClRosTimer</text>
</g>
<!-- entry_0&#45;&gt;ClRosTimer_0 -->
<!-- ClServiceClient_0 -->
<g id="node4" class="node">
<title>ClServiceClient_0</title>
<polygon fill="#d3d3d3" stroke="#000000" points="421.1909,-165.9082 318.1909,-165.9082 318.1909,-129.9082 421.1909,-129.9082 421.1909,-165.9082"/>
<text text-anchor="middle" x="369.6909" y="-144.2082" font-family="Times,serif" font-size="14.00" fill="#000000">ClServiceClient</text>
</g>
<!-- ClServiceServer_0&#45;&gt;ClServiceClient_0 -->
<!-- exit_orthogonal_node0 -->
<!-- ClServiceClient_0&#45;&gt;exit_orthogonal_node0 -->
<!-- CbTimerCountdownOnce_0 -->
<g id="node6" class="node">
<title>CbTimerCountdownOnce_0</title>
<ellipse fill="#d3d3d3" stroke="#000000" cx="369.6909" cy="-59.9082" rx="102.8821" ry="18"/>
<text text-anchor="middle" x="369.6909" y="-56.2082" font-family="Times,serif" font-size="14.00" fill="#000000">CbTimerCountdownOnce</text>
</g>
<!-- ClRosTimer_0&#45;&gt;CbTimerCountdownOnce_0 -->
<!-- CbTimerCountdownOnce_0&#45;&gt;exit_orthogonal_node0 -->
<!-- children_block_id0 -->
<!-- exit_orthogonal_node0&#45;&gt;children_block_id0 -->
<!-- statereactor_block_id0 -->
<!-- statereactor_block_id0&#45;&gt;EvTimer_sm_atomic_services::State2_0 -->
<!-- entry_1 -->
<g id="node15" class="node">
<title>entry_1</title>
<ellipse fill="#000000" stroke="#000000" cx="955.063" cy="-87.9082" rx="2" ry="2"/>
</g>
<!-- EvTimer_sm_atomic_services::State2_0&#45;&gt;entry_1 -->
<g id="edge19" class="edge">
<title>EvTimer_sm_atomic_services::State2_0:e&#45;&gt;entry_1:w</title>
<path fill="none" stroke="#22aa22" stroke-width="2" d="M910.063,-87.9082C925.2922,-87.9082 931.4195,-87.9082 942.9511,-87.9082"/>
<polygon fill="#22aa22" stroke="#22aa22" stroke-width="2" points="943.0631,-91.4083 953.063,-87.9082 943.063,-84.4083 943.0631,-91.4083"/>
</g>
<!-- cluster_transition_block_exit_0 -->
<!-- children_end_block_id0 -->
<!-- children_end_block_id0&#45;&gt;statereactor_block_id0 -->
<!-- initial_sm_node -->
<g id="node13" class="node">
<title>initial_sm_node</title>
<ellipse fill="#000000" stroke="#000000" cx="14.5" cy="-59.9082" rx="14.5" ry="14.5"/>
</g>
<!-- initial_sm_node&#45;&gt;entry_0 -->
<g id="edge7" class="edge">
<title>initial_sm_node&#45;&gt;entry_0</title>
<path fill="none" stroke="#000000" d="M29.2079,-59.9082C39.1254,-59.9082 52.0694,-59.9082 61.4908,-59.9082"/>
<polygon fill="#000000" stroke="#000000" points="54.0001,-63.4086 64,-59.9082 53.9999,-56.4086 54.0001,-63.4086"/>
</g>
<!-- unknown_source_1 -->
<g id="node14" class="node">
<title>unknown_source_1</title>
<path fill="#88aaff" stroke="#88aaff" d="M1713.1318,-124.9082C1713.1318,-124.9082 1667.1318,-124.9082 1667.1318,-124.9082 1661.1318,-124.9082 1655.1318,-118.9082 1655.1318,-112.9082 1655.1318,-112.9082 1655.1318,-98.9082 1655.1318,-98.9082 1655.1318,-92.9082 1661.1318,-86.9082 1667.1318,-86.9082 1667.1318,-86.9082 1713.1318,-86.9082 1713.1318,-86.9082 1719.1318,-86.9082 1725.1318,-92.9082 1725.1318,-98.9082 1725.1318,-98.9082 1725.1318,-112.9082 1725.1318,-112.9082 1725.1318,-118.9082 1719.1318,-124.9082 1713.1318,-124.9082"/>
<text text-anchor="middle" x="1690.1318" y="-109.7082" font-family="Times,serif" font-size="14.00" fill="#000000">Unknown</text>
<text text-anchor="middle" x="1690.1318" y="-94.7082" font-family="Times,serif" font-size="14.00" fill="#000000">Source</text>
</g>
<!-- EvServiceRequestReceieved_sm_atomic_services::State1_1 -->
<g id="node24" class="node">
<title>EvServiceRequestReceieved_sm_atomic_services::State1_1</title>
<path fill="#99ff99" stroke="#000000" d="M1860.1318,-87.9082C1860.1318,-87.9082 1780.1318,-87.9082 1780.1318,-87.9082 1774.1318,-87.9082 1768.1318,-81.9082 1768.1318,-75.9082 1768.1318,-75.9082 1768.1318,-63.9082 1768.1318,-63.9082 1768.1318,-57.9082 1774.1318,-51.9082 1780.1318,-51.9082 1780.1318,-51.9082 1860.1318,-51.9082 1860.1318,-51.9082 1866.1318,-51.9082 1872.1318,-57.9082 1872.1318,-63.9082 1872.1318,-63.9082 1872.1318,-75.9082 1872.1318,-75.9082 1872.1318,-81.9082 1866.1318,-87.9082 1860.1318,-87.9082"/>
<text text-anchor="middle" x="1820.1318" y="-64.9082" font-family="Times,serif" font-size="20.00" fill="#000000">SUCCESS</text>
</g>
<!-- unknown_source_1&#45;&gt;EvServiceRequestReceieved_sm_atomic_services::State1_1 -->
<g id="edge25" class="edge">
<title>unknown_source_1:e&#45;&gt;EvServiceRequestReceieved_sm_atomic_services::State1_1:w</title>
<path fill="none" stroke="#22aa22" stroke-width="2" d="M1725.1318,-105.9082C1745.9672,-105.9082 1744.5994,-80.7517 1758.1493,-72.4972"/>
<polygon fill="#22aa22" stroke="#22aa22" stroke-width="2" points="1759.3308,-75.8067 1768.1318,-69.9082 1757.5734,-69.0309 1759.3308,-75.8067"/>
<text text-anchor="middle" x="1824.7096" y="-91.5533" font-family="Times,serif" font-size="14.00" fill="#000000">EvServiceRequestReceieved</text>
</g>
<!-- ClServiceServer_1 -->
<g id="node16" class="node">
<title>ClServiceServer_1</title>
<polygon fill="#d3d3d3" stroke="#000000" points="1105.063,-165.9082 1000.063,-165.9082 1000.063,-129.9082 1105.063,-129.9082 1105.063,-165.9082"/>
<text text-anchor="middle" x="1052.563" y="-144.2082" font-family="Times,serif" font-size="14.00" fill="#000000">ClServiceServer</text>
</g>
<!-- entry_1&#45;&gt;ClServiceServer_1 -->
<!-- ClRosTimer_1 -->
<g id="node19" class="node">
<title>ClRosTimer_1</title>
<polygon fill="#d3d3d3" stroke="#000000" points="1094.563,-77.9082 1010.563,-77.9082 1010.563,-41.9082 1094.563,-41.9082 1094.563,-77.9082"/>
<text text-anchor="middle" x="1052.563" y="-56.2082" font-family="Times,serif" font-size="14.00" fill="#000000">ClRosTimer</text>
</g>
<!-- entry_1&#45;&gt;ClRosTimer_1 -->
<!-- ClServiceClient_1 -->
<g id="node17" class="node">
<title>ClServiceClient_1</title>
<polygon fill="#d3d3d3" stroke="#000000" points="1251.063,-165.9082 1148.063,-165.9082 1148.063,-129.9082 1251.063,-129.9082 1251.063,-165.9082"/>
<text text-anchor="middle" x="1199.563" y="-144.2082" font-family="Times,serif" font-size="14.00" fill="#000000">ClServiceClient</text>
</g>
<!-- ClServiceServer_1&#45;&gt;ClServiceClient_1 -->
<!-- CbServiceServer_1 -->
<g id="node18" class="node">
<title>CbServiceServer_1</title>
<ellipse fill="#d3d3d3" stroke="#000000" cx="1364.2568" cy="-147.9082" rx="70.3881" ry="18"/>
<text text-anchor="middle" x="1364.2568" y="-144.2082" font-family="Times,serif" font-size="14.00" fill="#000000">CbServiceServer</text>
</g>
<!-- ClServiceClient_1&#45;&gt;CbServiceServer_1 -->
<!-- exit_orthogonal_node1 -->
<!-- CbServiceServer_1&#45;&gt;exit_orthogonal_node1 -->
<!-- helpernode_1_1_0 -->
<!-- ClRosTimer_1&#45;&gt;helpernode_1_1_0 -->
<!-- helpernode_1_1_1 -->
<!-- helpernode_1_1_0&#45;&gt;helpernode_1_1_1 -->
<!-- helpernode_1_1_1&#45;&gt;exit_orthogonal_node1 -->
<!-- children_block_id1 -->
<!-- exit_orthogonal_node1&#45;&gt;children_block_id1 -->
<!-- statereactor_block_id1 -->
<!-- statereactor_block_id1&#45;&gt;EvServiceRequestReceieved_sm_atomic_services::State1_1 -->
<!-- EvServiceRequestReceieved_sm_atomic_services::State1_1&#45;&gt;entry_0 -->
<g id="edge24" class="edge">
<title>EvServiceRequestReceieved_sm_atomic_services::State1_1:e&#45;&gt;entry_0:w</title>
<path fill="none" stroke="#22aa22" stroke-width="2" d="M1872.1318,-69.9082C1893.1172,-69.9082 1907.7141,-138.6243 1768.1318,-87.9082 1744.7056,-79.3965 1747.2023,-63.4896 1725.1318,-51.9082 1697.8057,-37.569 1591.0415,-9.9082 1568.2912,-9.9082 369.6909,-9.9082 369.6909,-9.9082 369.6909,-9.9082 250.7947,-9.9082 209.1963,22.5582 103,-30.9082 89.868,-37.5197 91.1552,-48.663 81.4099,-55.6653"/>
<polygon fill="#22aa22" stroke="#22aa22" stroke-width="2" points="79.6775,-52.607 72,-59.9082 82.5548,-58.9883 79.6775,-52.607"/>
</g>
<!-- cluster_transition_block_exit_1 -->
<!-- children_end_block_id1 -->
<!-- children_end_block_id1&#45;&gt;statereactor_block_id1 -->
</g>
</svg>
