<?xml version="1.0" encoding="UTF-8" standalone="no"?>
<!DOCTYPE svg PUBLIC "-//W3C//DTD SVG 1.1//EN"
 "http://www.w3.org/Graphics/SVG/1.1/DTD/svg11.dtd">
<!-- Generated by graphviz version 2.38.0 (20140413.2041)
 -->
<!-- Title: %3 Pages: 1 -->
<svg width="1270pt" height="331pt"
 viewBox="0.00 0.00 1270.13 331.00" xmlns="http://www.w3.org/2000/svg" xmlns:xlink="http://www.w3.org/1999/xlink">
<g id="graph0" class="graph" transform="scale(1 1) rotate(0) translate(4 327)">
<title>%3</title>
<polygon fill="white" stroke="none" points="-4,4 -4,-327 1266.13,-327 1266.13,4 -4,4"/>
<g id="clust1" class="cluster"><title>cluster_0</title>
<path fill="white" stroke="black" d="M49,-68C49,-68 919.445,-68 919.445,-68 925.445,-68 931.445,-74 931.445,-80 931.445,-80 931.445,-303 931.445,-303 931.445,-309 925.445,-315 919.445,-315 919.445,-315 49,-315 49,-315 43,-315 37,-309 37,-303 37,-303 37,-80 37,-80 37,-74 43,-68 49,-68"/>
<text text-anchor="middle" x="175.5" y="-283" font-family="Times,serif" font-size="35.00">sm_atomic::State1</text>
</g>
<g id="clust2" class="cluster"><title>cluster_orthogonals_block_0</title>
<polygon fill="none" stroke="#bbbbbb" points="57,-164 57,-260 623.764,-260 623.764,-164 57,-164"/>
</g>
<g id="clust3" class="cluster"><title>cluster_Orthogonal_0_0</title>
<polygon fill="white" stroke="black" points="65,-172 65,-252 603.764,-252 603.764,-172 65,-172"/>
<text text-anchor="middle" x="105" y="-233.6" font-family="Times,serif" font-size="18.00">OrTimer</text>
</g>
<g id="clust4" class="cluster"><title>cluster_logicunit_block_id0</title>
<polygon fill="none" stroke="#bbbbbb" points="766.945,-105 766.945,-129 789.945,-129 789.945,-105 766.945,-105"/>
</g>
<g id="clust5" class="cluster"><title>cluster_transition_block_0</title>
<polygon fill="none" stroke="#bbbbbb" points="821.445,-94 821.445,-164 923.445,-164 923.445,-94 821.445,-94"/>
</g>
<g id="clust6" class="cluster"><title>cluster_children_block_id0</title>
<polygon fill="none" stroke="#bbbbbb" points="631.764,-76 631.764,-260 735.445,-260 735.445,-76 631.764,-76"/>
</g>
<g id="clust7" class="cluster"><title>cluster_1</title>
<path fill="white" stroke="black" d="M951.445,-8C951.445,-8 1242.13,-8 1242.13,-8 1248.13,-8 1254.13,-14 1254.13,-20 1254.13,-20 1254.13,-243 1254.13,-243 1254.13,-249 1248.13,-255 1242.13,-255 1242.13,-255 951.445,-255 951.445,-255 945.445,-255 939.445,-249 939.445,-243 939.445,-243 939.445,-20 939.445,-20 939.445,-14 945.445,-8 951.445,-8"/>
<text text-anchor="middle" x="1077.94" y="-223" font-family="Times,serif" font-size="35.00">sm_atomic::State2</text>
</g>
<g id="clust8" class="cluster"><title>cluster_orthogonals_block_1</title>
<polygon fill="none" stroke="#bbbbbb" points="975.445,-104 975.445,-200 1103.44,-200 1103.44,-104 975.445,-104"/>
</g>
<g id="clust9" class="cluster"><title>cluster_Orthogonal_1_0</title>
<polygon fill="white" stroke="black" points="983.445,-112 983.445,-192 1083.44,-192 1083.44,-112 983.445,-112"/>
<text text-anchor="middle" x="1023.44" y="-173.6" font-family="Times,serif" font-size="18.00">OrTimer</text>
</g>
<g id="clust10" class="cluster"><title>cluster_logicunit_block_id1</title>
<polygon fill="none" stroke="#bbbbbb" points="1223.13,-45 1223.13,-69 1246.13,-69 1246.13,-45 1223.13,-45"/>
</g>
<g id="clust11" class="cluster"><title>cluster_transition_block_1</title>
<polygon fill="none" stroke="#bbbbbb" points="947.445,-164 947.445,-184 967.445,-184 967.445,-164 947.445,-164"/>
</g>
<g id="clust12" class="cluster"><title>cluster_children_block_id1</title>
<polygon fill="none" stroke="#bbbbbb" points="1111.44,-16 1111.44,-200 1215.13,-200 1215.13,-16 1111.44,-16"/>
</g>
<!-- unknown_source_0 -->
<g id="node1" class="node"><title>unknown_source_0</title>
<path fill="#88aaff" stroke="#88aaff" d="M801.445,-175C801.445,-175 755.445,-175 755.445,-175 749.445,-175 743.445,-169 743.445,-163 743.445,-163 743.445,-149 743.445,-149 743.445,-143 749.445,-137 755.445,-137 755.445,-137 801.445,-137 801.445,-137 807.445,-137 813.445,-143 813.445,-149 813.445,-149 813.445,-163 813.445,-163 813.445,-169 807.445,-175 801.445,-175"/>
<text text-anchor="middle" x="778.445" y="-159.8" font-family="Times,serif" font-size="14.00">Unknown</text>
<text text-anchor="middle" x="778.445" y="-144.8" font-family="Times,serif" font-size="14.00">Source</text>
</g>
<!-- default_transition_name_sm_atomic::State2_0 -->
<g id="node8" class="node"><title>default_transition_name_sm_atomic::State2_0</title>
<path fill="#99ff99" stroke="black" d="M903.445,-156C903.445,-156 841.445,-156 841.445,-156 835.445,-156 829.445,-150 829.445,-144 829.445,-144 829.445,-132 829.445,-132 829.445,-126 835.445,-120 841.445,-120 841.445,-120 903.445,-120 903.445,-120 909.445,-120 915.445,-126 915.445,-132 915.445,-132 915.445,-144 915.445,-144 915.445,-150 909.445,-156 903.445,-156"/>
<text text-anchor="middle" x="872.445" y="-134.3" font-family="Times,serif" font-size="14.00">Transition_0</text>
</g>
<!-- unknown_source_0&#45;&gt;default_transition_name_sm_atomic::State2_0 -->
<g id="edge13" class="edge"><title>unknown_source_0:e&#45;&gt;default_transition_name_sm_atomic::State2_0:w</title>
<path fill="none" stroke="#22aa22" stroke-width="2" d="M813.445,-156C819.302,-156 820.021,-150.305 821.383,-145.321"/>
<polygon fill="#22aa22" stroke="#22aa22" stroke-width="2" points="824.021,-147.627 828.445,-138 818.983,-142.767 824.021,-147.627"/>
<text text-anchor="middle" x="887.512" y="-150.536" font-family="Times,serif" font-size="14.00">default_transition_name</text>
</g>
<!-- entry_0 -->
<g id="node2" class="node"><title>entry_0</title>
<ellipse fill="black" stroke="black" cx="47" cy="-198" rx="2" ry="2"/>
</g>
<!-- ClRosTimer_0 -->
<g id="node3" class="node"><title>ClRosTimer_0</title>
<polygon fill="lightgrey" stroke="black" points="157,-216 73,-216 73,-180 157,-180 157,-216"/>
<text text-anchor="middle" x="115" y="-194.3" font-family="Times,serif" font-size="14.00">ClRosTimer</text>
</g>
<!-- entry_0&#45;&gt;ClRosTimer_0 -->
<g id="edge10" class="edge"><title>entry_0&#45;&gt;ClRosTimer_0</title>
<path fill="none" stroke="#cccccc" d="M49.1456,-198C51.3077,-198 56.3503,-198 62.7204,-198"/>
<polygon fill="#cccccc" stroke="#cccccc" points="62.8225,-201.5 72.8225,-198 62.8224,-194.5 62.8225,-201.5"/>
</g>
<!-- CbTimerCountdownLoop_0 -->
<g id="node4" class="node"><title>CbTimerCountdownLoop_0</title>
<ellipse fill="lightgrey" stroke="black" cx="273.691" cy="-198" rx="102.882" ry="18"/>
<text text-anchor="middle" x="273.691" y="-194.3" font-family="Times,serif" font-size="14.00">CbTimerCountdownLoop</text>
</g>
<!-- ClRosTimer_0&#45;&gt;CbTimerCountdownLoop_0 -->
<!-- CbTimerCountdownOnce_0 -->
<g id="node5" class="node"><title>CbTimerCountdownOnce_0</title>
<ellipse fill="lightgrey" stroke="black" cx="493.073" cy="-198" rx="102.882" ry="18"/>
<text text-anchor="middle" x="493.073" y="-194.3" font-family="Times,serif" font-size="14.00">CbTimerCountdownOnce</text>
</g>
<!-- CbTimerCountdownLoop_0&#45;&gt;CbTimerCountdownOnce_0 -->
<!-- exit_orthogonal_node0 -->
<g id="node6" class="node"><title>exit_orthogonal_node0</title>
<ellipse fill="#dddddd" stroke="#dddddd" cx="613.764" cy="-203" rx="2" ry="2"/>
</g>
<!-- CbTimerCountdownOnce_0&#45;&gt;exit_orthogonal_node0 -->
<g id="edge3" class="edge"><title>CbTimerCountdownOnce_0&#45;&gt;exit_orthogonal_node0</title>
<path fill="none" stroke="#cccccc" d="M593.164,-202.174C596.046,-202.296 598.696,-202.407 601.055,-202.507"/>
<polygon fill="#cccccc" stroke="#cccccc" points="601.209,-206.016 611.348,-202.94 601.504,-199.022 601.209,-206.016"/>
</g>
<!-- children_block_id0 -->
<!-- exit_orthogonal_node0&#45;&gt;children_block_id0 -->
<g id="edge4" class="edge"><title>exit_orthogonal_node0&#45;&gt;children_block_id0</title>
<path fill="none" stroke="#dddddd" d="M615.941,-203.087C618.116,-203.247 623.127,-203.616 629.478,-204.085"/>
<polygon fill="#dddddd" stroke="#dddddd" points="629.337,-207.584 639.568,-204.828 629.852,-200.602 629.337,-207.584"/>
</g>
<!-- logicunit_block_id0 -->
<g id="node7" class="node"><title>logicunit_block_id0</title>
<ellipse fill="none" stroke="#dddddd" cx="778.445" cy="-117" rx="3.5" ry="3.5"/>
</g>
<!-- logicunit_block_id0&#45;&gt;default_transition_name_sm_atomic::State2_0 -->
<g id="edge11" class="edge"><title>logicunit_block_id0&#45;&gt;default_transition_name_sm_atomic::State2_0</title>
<path fill="none" stroke="#dddddd" stroke-width="2" d="M782.099,-117.606C788.003,-118.954 802.974,-122.371 819.009,-126.031"/>
<polygon fill="#dddddd" stroke="#dddddd" stroke-width="2" points="818.531,-129.512 829.059,-128.325 820.089,-122.687 818.531,-129.512"/>
</g>
<!-- entry_1 -->
<g id="node13" class="node"><title>entry_1</title>
<ellipse fill="black" stroke="black" cx="957.445" cy="-138" rx="2" ry="2"/>
</g>
<!-- default_transition_name_sm_atomic::State2_0&#45;&gt;entry_1 -->
<g id="edge12" class="edge"><title>default_transition_name_sm_atomic::State2_0:e&#45;&gt;entry_1:w</title>
<path fill="none" stroke="#22aa22" stroke-width="2" d="M916.445,-138C929.375,-138 934.881,-138 944.331,-138"/>
<polygon fill="#22aa22" stroke="#22aa22" stroke-width="2" points="944.445,-141.5 954.445,-138 944.445,-134.5 944.445,-141.5"/>
</g>
<!-- cluster_transition_block_exit_0 -->
<g id="node9" class="node"><title>cluster_transition_block_exit_0</title>
<ellipse fill="#dddddd" stroke="#dddddd" cx="872.445" cy="-104" rx="2" ry="2"/>
</g>
<!-- children_end_block_id0 -->
<!-- children_end_block_id0&#45;&gt;logicunit_block_id0 -->
<g id="edge5" class="edge"><title>children_end_block_id0&#45;&gt;logicunit_block_id0</title>
<path fill="none" stroke="#dddddd" d="M717.075,-117C733.357,-117 752.163,-117 764.401,-117"/>
<polygon fill="#dddddd" stroke="#dddddd" points="764.673,-120.5 774.673,-117 764.673,-113.5 764.673,-120.5"/>
</g>
<!-- initial_sm_node -->
<g id="node12" class="node"><title>initial_sm_node</title>
<ellipse fill="black" stroke="black" cx="14.5" cy="-198" rx="14.5" ry="14.5"/>
</g>
<!-- initial_sm_node&#45;&gt;entry_0 -->
<g id="edge6" class="edge"><title>initial_sm_node&#45;&gt;entry_0</title>
<path fill="none" stroke="black" d="M29.3222,-198C31.0244,-198 32.7506,-198 34.4149,-198"/>
<polygon fill="black" stroke="black" points="27.0001,-201.5 37,-198 26.9999,-194.5 27.0001,-201.5"/>
</g>
<!-- ClRosTimer_1 -->
<g id="node14" class="node"><title>ClRosTimer_1</title>
<polygon fill="lightgrey" stroke="black" points="1075.44,-156 991.445,-156 991.445,-120 1075.44,-120 1075.44,-156"/>
<text text-anchor="middle" x="1033.44" y="-134.3" font-family="Times,serif" font-size="14.00">ClRosTimer</text>
</g>
<!-- entry_1&#45;&gt;ClRosTimer_1 -->
<g id="edge14" class="edge"><title>entry_1&#45;&gt;ClRosTimer_1</title>
<path fill="none" stroke="#cccccc" d="M959.491,-138C962.366,-138 970.86,-138 981.085,-138"/>
<polygon fill="#cccccc" stroke="#cccccc" points="981.293,-141.5 991.293,-138 981.293,-134.5 981.293,-141.5"/>
</g>
<!-- exit_orthogonal_node1 -->
<g id="node15" class="node"><title>exit_orthogonal_node1</title>
<ellipse fill="#dddddd" stroke="#dddddd" cx="1093.44" cy="-143" rx="2" ry="2"/>
</g>
<!-- ClRosTimer_1&#45;&gt;exit_orthogonal_node1 -->
<g id="edge7" class="edge"><title>ClRosTimer_1&#45;&gt;exit_orthogonal_node1</title>
<path fill="none" stroke="#cccccc" d="M1075.67,-141.554C1077.55,-141.716 1079.35,-141.871 1081.02,-142.015"/>
<polygon fill="#cccccc" stroke="#cccccc" points="1080.89,-145.517 1091.15,-142.889 1081.49,-138.543 1080.89,-145.517"/>
</g>
<!-- children_block_id1 -->
<!-- exit_orthogonal_node1&#45;&gt;children_block_id1 -->
<g id="edge8" class="edge"><title>exit_orthogonal_node1&#45;&gt;children_block_id1</title>
<path fill="none" stroke="#dddddd" d="M1095.62,-143.087C1097.8,-143.247 1102.81,-143.616 1109.16,-144.085"/>
<polygon fill="#dddddd" stroke="#dddddd" points="1109.02,-147.584 1119.25,-144.828 1109.53,-140.602 1109.02,-147.584"/>
</g>
<!-- logicunit_block_id1 -->
<g id="node16" class="node"><title>logicunit_block_id1</title>
<ellipse fill="none" stroke="#dddddd" cx="1234.63" cy="-57" rx="3.5" ry="3.5"/>
</g>
<!-- cluster_transition_block_exit_1 -->
<g id="node17" class="node"><title>cluster_transition_block_exit_1</title>
<ellipse fill="#dddddd" stroke="#dddddd" cx="957.445" cy="-174" rx="2" ry="2"/>
</g>
<!-- children_end_block_id1 -->
<!-- children_end_block_id1&#45;&gt;logicunit_block_id1 -->
<g id="edge9" class="edge"><title>children_end_block_id1&#45;&gt;logicunit_block_id1</title>
<path fill="none" stroke="#dddddd" d="M1196.52,-57C1205.25,-57 1214.19,-57 1221.1,-57"/>
<polygon fill="#dddddd" stroke="#dddddd" points="1221.11,-60.5001 1231.11,-57 1221.11,-53.5001 1221.11,-60.5001"/>
</g>
</g>
</svg>
