<?xml version="1.0" encoding="UTF-8" standalone="no"?>
<!DOCTYPE svg PUBLIC "-//W3C//DTD SVG 1.1//EN"
 "http://www.w3.org/Graphics/SVG/1.1/DTD/svg11.dtd">
<!-- Generated by graphviz version 2.38.0 (20140413.2041)
 -->
<!-- Title: %3 Pages: 1 -->
<svg width="3433pt" height="426pt"
 viewBox="0.00 0.00 3432.98 426.09" xmlns="http://www.w3.org/2000/svg" xmlns:xlink="http://www.w3.org/1999/xlink">
<g id="graph0" class="graph" transform="scale(1 1) rotate(0) translate(4 422.087)">
<title>%3</title>
<polygon fill="white" stroke="none" points="-4,4 -4,-422.087 3428.98,-422.087 3428.98,4 -4,4"/>
<g id="clust1" class="cluster"><title>cluster_0</title>
<path fill="white" stroke="black" d="M780.273,-53.0871C780.273,-53.0871 3404.98,-53.0871 3404.98,-53.0871 3410.98,-53.0871 3416.98,-59.0871 3416.98,-65.0871 3416.98,-65.0871 3416.98,-377.087 3416.98,-377.087 3416.98,-383.087 3410.98,-389.087 3404.98,-389.087 3404.98,-389.087 780.273,-389.087 780.273,-389.087 774.273,-389.087 768.273,-383.087 768.273,-377.087 768.273,-377.087 768.273,-65.0871 768.273,-65.0871 768.273,-59.0871 774.273,-53.0871 780.273,-53.0871"/>
<text text-anchor="middle" x="869.273" y="-357.087" font-family="calibri" font-size="35.00">MsRunMode</text>
</g>
<g id="clust2" class="cluster"><title>cluster_orthogonals_block_0</title>
</g>
<g id="clust3" class="cluster"><title>cluster_statereactor_block_id0</title>
<polygon fill="none" stroke="white" points="3385.98,-144.087 3385.98,-168.087 3408.98,-168.087 3408.98,-144.087 3385.98,-144.087"/>
</g>
<g id="clust4" class="cluster"><title>cluster_transition_block_0</title>
<polygon fill="none" stroke="white" points="3387.48,-176.087 3387.48,-196.087 3407.48,-196.087 3407.48,-176.087 3387.48,-176.087"/>
</g>
<g id="clust5" class="cluster"><title>cluster_children_block_id0</title>
<polygon fill="none" stroke="white" points="865.013,-61.0871 865.013,-334.087 3358.98,-334.087 3358.98,-61.0871 865.013,-61.0871"/>
</g>
<g id="clust6" class="cluster"><title>cluster_1</title>
<path fill="white" stroke="black" d="M1007.69,-79.0871C1007.69,-79.0871 1724.97,-79.0871 1724.97,-79.0871 1730.97,-79.0871 1736.97,-85.0871 1736.97,-91.0871 1736.97,-91.0871 1736.97,-314.087 1736.97,-314.087 1736.97,-320.087 1730.97,-326.087 1724.97,-326.087 1724.97,-326.087 1007.69,-326.087 1007.69,-326.087 1001.69,-326.087 995.694,-320.087 995.694,-314.087 995.694,-314.087 995.694,-91.0871 995.694,-91.0871 995.694,-85.0871 1001.69,-79.0871 1007.69,-79.0871"/>
<text text-anchor="middle" x="1027.19" y="-294.087" font-family="calibri" font-size="35.00">St1</text>
</g>
<g id="clust7" class="cluster"><title>cluster_orthogonals_block_1</title>
<polygon fill="none" stroke="white" points="1034.69,-175.087 1034.69,-271.087 1338.29,-271.087 1338.29,-175.087 1034.69,-175.087"/>
</g>
<g id="clust8" class="cluster"><title>cluster_Orthogonal_1_0</title>
<polygon fill="white" stroke="black" points="1042.69,-183.087 1042.69,-263.087 1291.29,-263.087 1291.29,-183.087 1042.69,-183.087"/>
<text text-anchor="middle" x="1100.19" y="-244.687" font-family="calibri" font-size="18.00">OrNavigation</text>
</g>
<g id="clust9" class="cluster"><title>cluster_statereactor_block_id1</title>
<polygon fill="none" stroke="white" points="1527.47,-164.087 1527.47,-188.087 1550.47,-188.087 1550.47,-164.087 1527.47,-164.087"/>
</g>
<g id="clust10" class="cluster"><title>cluster_transition_block_1</title>
<polygon fill="none" stroke="white" points="1608.97,-88.0871 1608.97,-208.087 1728.97,-208.087 1728.97,-88.0871 1608.97,-88.0871"/>
</g>
<g id="clust11" class="cluster"><title>cluster_children_block_id1</title>
<polygon fill="none" stroke="white" points="1365.29,-87.0871 1365.29,-271.087 1468.97,-271.087 1468.97,-87.0871 1365.29,-87.0871"/>
</g>
<g id="clust12" class="cluster"><title>cluster_2</title>
<path fill="white" stroke="black" d="M1767.97,-69.0871C1767.97,-69.0871 2485.24,-69.0871 2485.24,-69.0871 2491.24,-69.0871 2497.24,-75.0871 2497.24,-81.0871 2497.24,-81.0871 2497.24,-304.087 2497.24,-304.087 2497.24,-310.087 2491.24,-316.087 2485.24,-316.087 2485.24,-316.087 1767.97,-316.087 1767.97,-316.087 1761.97,-316.087 1755.97,-310.087 1755.97,-304.087 1755.97,-304.087 1755.97,-81.0871 1755.97,-81.0871 1755.97,-75.0871 1761.97,-69.0871 1767.97,-69.0871"/>
<text text-anchor="middle" x="1787.47" y="-284.087" font-family="calibri" font-size="35.00">St2</text>
</g>
<g id="clust13" class="cluster"><title>cluster_orthogonals_block_2</title>
<polygon fill="none" stroke="white" points="1794.97,-160.087 1794.97,-256.087 2098.56,-256.087 2098.56,-160.087 1794.97,-160.087"/>
</g>
<g id="clust14" class="cluster"><title>cluster_Orthogonal_2_0</title>
<polygon fill="white" stroke="black" points="1802.97,-168.087 1802.97,-248.087 2051.56,-248.087 2051.56,-168.087 1802.97,-168.087"/>
<text text-anchor="middle" x="1860.47" y="-229.687" font-family="calibri" font-size="18.00">OrNavigation</text>
</g>
<g id="clust15" class="cluster"><title>cluster_statereactor_block_id2</title>
<polygon fill="none" stroke="white" points="2287.74,-114.087 2287.74,-138.087 2310.74,-138.087 2310.74,-114.087 2287.74,-114.087"/>
</g>
<g id="clust16" class="cluster"><title>cluster_transition_block_2</title>
<polygon fill="none" stroke="white" points="2369.24,-95.0871 2369.24,-215.087 2489.24,-215.087 2489.24,-95.0871 2369.24,-95.0871"/>
</g>
<g id="clust17" class="cluster"><title>cluster_children_block_id2</title>
<polygon fill="none" stroke="white" points="2125.56,-77.0871 2125.56,-261.087 2229.24,-261.087 2229.24,-77.0871 2125.56,-77.0871"/>
</g>
<g id="clust18" class="cluster"><title>cluster_3</title>
<path fill="white" stroke="black" d="M2528.24,-69.0871C2528.24,-69.0871 3245.51,-69.0871 3245.51,-69.0871 3251.51,-69.0871 3257.51,-75.0871 3257.51,-81.0871 3257.51,-81.0871 3257.51,-304.087 3257.51,-304.087 3257.51,-310.087 3251.51,-316.087 3245.51,-316.087 3245.51,-316.087 2528.24,-316.087 2528.24,-316.087 2522.24,-316.087 2516.24,-310.087 2516.24,-304.087 2516.24,-304.087 2516.24,-81.0871 2516.24,-81.0871 2516.24,-75.0871 2522.24,-69.0871 2528.24,-69.0871"/>
<text text-anchor="middle" x="2547.74" y="-284.087" font-family="calibri" font-size="35.00">St3</text>
</g>
<g id="clust19" class="cluster"><title>cluster_orthogonals_block_3</title>
<polygon fill="none" stroke="white" points="2555.24,-150.087 2555.24,-246.087 2858.83,-246.087 2858.83,-150.087 2555.24,-150.087"/>
</g>
<g id="clust20" class="cluster"><title>cluster_Orthogonal_3_0</title>
<polygon fill="white" stroke="black" points="2563.24,-158.087 2563.24,-238.087 2811.83,-238.087 2811.83,-158.087 2563.24,-158.087"/>
<text text-anchor="middle" x="2620.74" y="-219.687" font-family="calibri" font-size="18.00">OrNavigation</text>
</g>
<g id="clust21" class="cluster"><title>cluster_statereactor_block_id3</title>
<polygon fill="none" stroke="white" points="3048.01,-107.087 3048.01,-131.087 3071.01,-131.087 3071.01,-107.087 3048.01,-107.087"/>
</g>
<g id="clust22" class="cluster"><title>cluster_transition_block_3</title>
<polygon fill="none" stroke="white" points="3129.51,-77.0871 3129.51,-197.087 3249.51,-197.087 3249.51,-77.0871 3129.51,-77.0871"/>
</g>
<g id="clust23" class="cluster"><title>cluster_children_block_id3</title>
<polygon fill="none" stroke="white" points="2885.83,-77.0871 2885.83,-261.087 2989.51,-261.087 2989.51,-77.0871 2885.83,-77.0871"/>
</g>
<g id="clust24" class="cluster"><title>cluster_4</title>
<path fill="white" stroke="black" d="M20,-163.087C20,-163.087 737.273,-163.087 737.273,-163.087 743.273,-163.087 749.273,-169.087 749.273,-175.087 749.273,-175.087 749.273,-398.087 749.273,-398.087 749.273,-404.087 743.273,-410.087 737.273,-410.087 737.273,-410.087 20,-410.087 20,-410.087 14,-410.087 8,-404.087 8,-398.087 8,-398.087 8,-175.087 8,-175.087 8,-169.087 14,-163.087 20,-163.087"/>
<text text-anchor="middle" x="145.5" y="-378.087" font-family="calibri" font-size="35.00">MsRecoveryMode</text>
</g>
<g id="clust25" class="cluster"><title>cluster_orthogonals_block_4</title>
<polygon fill="none" stroke="white" points="47,-259.087 47,-355.087 350.592,-355.087 350.592,-259.087 47,-259.087"/>
</g>
<g id="clust26" class="cluster"><title>cluster_Orthogonal_4_0</title>
<polygon fill="white" stroke="black" points="55,-267.087 55,-347.087 303.592,-347.087 303.592,-267.087 55,-267.087"/>
<text text-anchor="middle" x="112.5" y="-328.687" font-family="calibri" font-size="18.00">OrNavigation</text>
</g>
<g id="clust27" class="cluster"><title>cluster_statereactor_block_id4</title>
<polygon fill="none" stroke="white" points="539.773,-200.087 539.773,-224.087 562.773,-224.087 562.773,-200.087 539.773,-200.087"/>
</g>
<g id="clust28" class="cluster"><title>cluster_transition_block_4</title>
<polygon fill="none" stroke="white" points="621.273,-189.087 621.273,-259.087 741.273,-259.087 741.273,-189.087 621.273,-189.087"/>
</g>
<g id="clust29" class="cluster"><title>cluster_children_block_id4</title>
<polygon fill="none" stroke="white" points="377.592,-171.087 377.592,-355.087 481.273,-355.087 481.273,-171.087 377.592,-171.087"/>
</g>
<!-- history_state_0 -->
<g id="node1" class="node"><title>history_state_0</title>
<ellipse fill="white" stroke="black" cx="803.143" cy="-233.087" rx="26.7407" ry="26.7407"/>
<text text-anchor="middle" x="803.143" y="-228.687" font-family="Times,serif" font-size="18.00">H*</text>
</g>
<!-- entry_0 -->
<g id="node2" class="node"><title>entry_0</title>
<ellipse fill="black" stroke="black" cx="803.143" cy="-64.0871" rx="2" ry="2"/>
</g>
<!-- exit_orthogonal_node0 -->
<!-- children_block_id0 -->
<!-- exit_orthogonal_node0&#45;&gt;children_block_id0 -->
<!-- statereactor_block_id0 -->
<!-- cluster_transition_block_exit_0 -->
<!-- entry_1 -->
<g id="node8" class="node"><title>entry_1</title>
<ellipse fill="black" stroke="black" cx="1005.69" cy="-209.087" rx="2" ry="2"/>
</g>
<!-- children_block_id0&#45;&gt;entry_1 -->
<!-- children_entry_node_0 -->
<g id="node7" class="node"><title>children_entry_node_0</title>
<ellipse fill="black" stroke="black" cx="916.854" cy="-206.087" rx="14.5" ry="14.5"/>
</g>
<!-- children_entry_node_0&#45;&gt;entry_1 -->
<g id="edge1" class="edge"><title>children_entry_node_0&#45;&gt;entry_1</title>
<path fill="none" stroke="black" d="M931.423,-206.556C948.369,-207.141 977.074,-208.133 993.061,-208.685"/>
<polygon fill="black" stroke="black" points="985.313,-211.159 995.694,-209.045 986.26,-204.224 985.313,-211.159"/>
</g>
<!-- ClMoveBaseZ_1 -->
<g id="node10" class="node"><title>ClMoveBaseZ_1</title>
<polygon fill="lightgrey" stroke="black" points="1146.69,-227.087 1050.69,-227.087 1050.69,-191.087 1146.69,-191.087 1146.69,-227.087"/>
<text text-anchor="middle" x="1098.69" y="-205.387" font-family="Times,serif" font-size="14.00">ClMoveBaseZ</text>
</g>
<!-- entry_1&#45;&gt;ClMoveBaseZ_1 -->
<!-- unknown_source_1 -->
<g id="node9" class="node"><title>unknown_source_1</title>
<path fill="#88aaff" stroke="#88aaff" d="M1561.97,-155.087C1561.97,-155.087 1515.97,-155.087 1515.97,-155.087 1509.97,-155.087 1503.97,-149.087 1503.97,-143.087 1503.97,-143.087 1503.97,-129.087 1503.97,-129.087 1503.97,-123.087 1509.97,-117.087 1515.97,-117.087 1515.97,-117.087 1561.97,-117.087 1561.97,-117.087 1567.97,-117.087 1573.97,-123.087 1573.97,-129.087 1573.97,-129.087 1573.97,-143.087 1573.97,-143.087 1573.97,-149.087 1567.97,-155.087 1561.97,-155.087"/>
<text text-anchor="middle" x="1538.97" y="-139.887" font-family="Times,serif" font-size="14.00">Unknown</text>
<text text-anchor="middle" x="1538.97" y="-124.887" font-family="Times,serif" font-size="14.00">Source</text>
</g>
<!-- Ev1_sm_viewer_sim::St2_1 -->
<g id="node14" class="node"><title>Ev1_sm_viewer_sim::St2_1</title>
<path fill="#99ff99" stroke="black" d="M1708.97,-200.087C1708.97,-200.087 1628.97,-200.087 1628.97,-200.087 1622.97,-200.087 1616.97,-194.087 1616.97,-188.087 1616.97,-188.087 1616.97,-176.087 1616.97,-176.087 1616.97,-170.087 1622.97,-164.087 1628.97,-164.087 1628.97,-164.087 1708.97,-164.087 1708.97,-164.087 1714.97,-164.087 1720.97,-170.087 1720.97,-176.087 1720.97,-176.087 1720.97,-188.087 1720.97,-188.087 1720.97,-194.087 1714.97,-200.087 1708.97,-200.087"/>
<text text-anchor="middle" x="1668.97" y="-177.087" font-family="Times,serif" font-size="20.00">SUCCESS</text>
</g>
<!-- unknown_source_1&#45;&gt;Ev1_sm_viewer_sim::St2_1 -->
<g id="edge27" class="edge"><title>unknown_source_1:e&#45;&gt;Ev1_sm_viewer_sim::St2_1:w</title>
<path fill="none" stroke="#22aa22" stroke-width="2" d="M1573.97,-136.087C1597.54,-136.087 1591.35,-169.444 1606.08,-179.347"/>
<polygon fill="#22aa22" stroke="#22aa22" stroke-width="2" points="1605.4,-182.788 1615.97,-182.087 1607.27,-176.043 1605.4,-182.788"/>
<text text-anchor="middle" x="1605.94" y="-147.815" font-family="Times,serif" font-size="14.00">Ev1</text>
</g>
<!-- EvFail_sm_viewer_sim::MsRecoveryMode_1 -->
<g id="node15" class="node"><title>EvFail_sm_viewer_sim::MsRecoveryMode_1</title>
<path fill="#ff9999" stroke="black" d="M1698.97,-150.087C1698.97,-150.087 1638.97,-150.087 1638.97,-150.087 1632.97,-150.087 1626.97,-144.087 1626.97,-138.087 1626.97,-138.087 1626.97,-126.087 1626.97,-126.087 1626.97,-120.087 1632.97,-114.087 1638.97,-114.087 1638.97,-114.087 1698.97,-114.087 1698.97,-114.087 1704.97,-114.087 1710.97,-120.087 1710.97,-126.087 1710.97,-126.087 1710.97,-138.087 1710.97,-138.087 1710.97,-144.087 1704.97,-150.087 1698.97,-150.087"/>
<text text-anchor="middle" x="1668.97" y="-127.087" font-family="Times,serif" font-size="20.00">ABORT</text>
</g>
<!-- unknown_source_1&#45;&gt;EvFail_sm_viewer_sim::MsRecoveryMode_1 -->
<g id="edge29" class="edge"><title>unknown_source_1:e&#45;&gt;EvFail_sm_viewer_sim::MsRecoveryMode_1:w</title>
<path fill="none" stroke="#ff4444" stroke-width="2" d="M1573.97,-136.087C1593.34,-136.087 1600.46,-133.292 1615.82,-132.375"/>
<polygon fill="#ff4444" stroke="#ff4444" stroke-width="2" points="1616.07,-135.869 1625.97,-132.087 1615.87,-128.872 1616.07,-135.869"/>
<text text-anchor="middle" x="1618.31" y="-122.909" font-family="Times,serif" font-size="14.00">EvFail</text>
</g>
<!-- helpernode_1_0_0 -->
<!-- ClMoveBaseZ_1&#45;&gt;helpernode_1_0_0 -->
<!-- exit_orthogonal_node1 -->
<!-- helpernode_1_0_0&#45;&gt;exit_orthogonal_node1 -->
<!-- children_block_id1 -->
<!-- exit_orthogonal_node1&#45;&gt;children_block_id1 -->
<!-- statereactor_block_id1 -->
<!-- statereactor_block_id1&#45;&gt;Ev1_sm_viewer_sim::St2_1 -->
<!-- entry_2 -->
<g id="node20" class="node"><title>entry_2</title>
<ellipse fill="black" stroke="black" cx="1765.97" cy="-186.087" rx="2" ry="2"/>
</g>
<!-- Ev1_sm_viewer_sim::St2_1&#45;&gt;entry_2 -->
<g id="edge26" class="edge"><title>Ev1_sm_viewer_sim::St2_1:e&#45;&gt;entry_2:w</title>
<path fill="none" stroke="#22aa22" stroke-width="2" d="M1721.97,-182.087C1736.27,-182.087 1742.07,-184.528 1752.66,-185.597"/>
<polygon fill="#22aa22" stroke="#22aa22" stroke-width="2" points="1752.81,-189.108 1762.97,-186.087 1753.14,-182.116 1752.81,-189.108"/>
</g>
<!-- entry_4 -->
<g id="node44" class="node"><title>entry_4</title>
<ellipse fill="black" stroke="black" cx="18" cy="-293.087" rx="2" ry="2"/>
</g>
<!-- EvFail_sm_viewer_sim::MsRecoveryMode_1&#45;&gt;entry_4 -->
<g id="edge28" class="edge"><title>EvFail_sm_viewer_sim::MsRecoveryMode_1:e&#45;&gt;entry_4:w</title>
<path fill="none" stroke="#ff4444" stroke-width="2" d="M1711.97,-132.087C1719.98,-132.087 1716.79,-144.581 1710.97,-150.087 1697.41,-162.915 1644.49,-156.522 1626.97,-150.087 1597.96,-139.434 1601.78,-118.547 1573.97,-105.087 1531.13,-84.358 1516.19,-89.9599 1468.97,-84.0871 1327.89,-66.5432 972.136,-55.6437 830.013,-52.0871 802.582,-51.4006 789.426,-34.608 768.273,-52.0871 733.736,-80.6263 783.149,-121.766 749.273,-151.087 718.014,-178.142 418.377,-161.331 377.592,-168.087 226.649,-193.091 175.939,-181.725 47,-264.087 31.6023,-273.923 36.6295,-287.518 20,-295.087 19.8989,-295.133 19.8007,-295.177 19.7048,-295.218"/>
<polygon fill="#ff4444" stroke="#ff4444" stroke-width="2" points="25.5533,-294.025 15,-293.087 22.6649,-300.402 25.5533,-294.025"/>
</g>
<!-- cluster_transition_block_exit_1 -->
<!-- children_end_block_id1 -->
<!-- children_end_block_id1&#45;&gt;statereactor_block_id1 -->
<!-- unknown_source_2 -->
<g id="node19" class="node"><title>unknown_source_2</title>
<path fill="#88aaff" stroke="#88aaff" d="M2322.24,-200.087C2322.24,-200.087 2276.24,-200.087 2276.24,-200.087 2270.24,-200.087 2264.24,-194.087 2264.24,-188.087 2264.24,-188.087 2264.24,-174.087 2264.24,-174.087 2264.24,-168.087 2270.24,-162.087 2276.24,-162.087 2276.24,-162.087 2322.24,-162.087 2322.24,-162.087 2328.24,-162.087 2334.24,-168.087 2334.24,-174.087 2334.24,-174.087 2334.24,-188.087 2334.24,-188.087 2334.24,-194.087 2328.24,-200.087 2322.24,-200.087"/>
<text text-anchor="middle" x="2299.24" y="-184.887" font-family="Times,serif" font-size="14.00">Unknown</text>
<text text-anchor="middle" x="2299.24" y="-169.887" font-family="Times,serif" font-size="14.00">Source</text>
</g>
<!-- Ev2_sm_viewer_sim::St3_2 -->
<g id="node25" class="node"><title>Ev2_sm_viewer_sim::St3_2</title>
<path fill="#99ff99" stroke="black" d="M2469.24,-157.087C2469.24,-157.087 2389.24,-157.087 2389.24,-157.087 2383.24,-157.087 2377.24,-151.087 2377.24,-145.087 2377.24,-145.087 2377.24,-133.087 2377.24,-133.087 2377.24,-127.087 2383.24,-121.087 2389.24,-121.087 2389.24,-121.087 2469.24,-121.087 2469.24,-121.087 2475.24,-121.087 2481.24,-127.087 2481.24,-133.087 2481.24,-133.087 2481.24,-145.087 2481.24,-145.087 2481.24,-151.087 2475.24,-157.087 2469.24,-157.087"/>
<text text-anchor="middle" x="2429.24" y="-134.087" font-family="Times,serif" font-size="20.00">SUCCESS</text>
</g>
<!-- unknown_source_2&#45;&gt;Ev2_sm_viewer_sim::St3_2 -->
<g id="edge33" class="edge"><title>unknown_source_2:e&#45;&gt;Ev2_sm_viewer_sim::St3_2:w</title>
<path fill="none" stroke="#22aa22" stroke-width="2" d="M2334.24,-181.087C2356.51,-181.087 2352.31,-151.187 2366.31,-141.843"/>
<polygon fill="#22aa22" stroke="#22aa22" stroke-width="2" points="2367.54,-145.133 2376.24,-139.087 2365.67,-138.388 2367.54,-145.133"/>
<text text-anchor="middle" x="2344.26" y="-148.826" font-family="Times,serif" font-size="14.00">Ev2</text>
</g>
<!-- EvFail_sm_viewer_sim::MsRecoveryMode_2 -->
<g id="node26" class="node"><title>EvFail_sm_viewer_sim::MsRecoveryMode_2</title>
<path fill="#ff9999" stroke="black" d="M2459.24,-207.087C2459.24,-207.087 2399.24,-207.087 2399.24,-207.087 2393.24,-207.087 2387.24,-201.087 2387.24,-195.087 2387.24,-195.087 2387.24,-183.087 2387.24,-183.087 2387.24,-177.087 2393.24,-171.087 2399.24,-171.087 2399.24,-171.087 2459.24,-171.087 2459.24,-171.087 2465.24,-171.087 2471.24,-177.087 2471.24,-183.087 2471.24,-183.087 2471.24,-195.087 2471.24,-195.087 2471.24,-201.087 2465.24,-207.087 2459.24,-207.087"/>
<text text-anchor="middle" x="2429.24" y="-184.087" font-family="Times,serif" font-size="20.00">ABORT</text>
</g>
<!-- unknown_source_2&#45;&gt;EvFail_sm_viewer_sim::MsRecoveryMode_2 -->
<g id="edge35" class="edge"><title>unknown_source_2:e&#45;&gt;EvFail_sm_viewer_sim::MsRecoveryMode_2:w</title>
<path fill="none" stroke="#ff4444" stroke-width="2" d="M2334.24,-181.087C2353.79,-181.087 2360.65,-186.677 2376.04,-188.512"/>
<polygon fill="#ff4444" stroke="#ff4444" stroke-width="2" points="2376.06,-192.018 2386.24,-189.087 2376.45,-185.03 2376.06,-192.018"/>
<text text-anchor="middle" x="2378.58" y="-173.843" font-family="Times,serif" font-size="14.00">EvFail</text>
</g>
<!-- ClMoveBaseZ_2 -->
<g id="node21" class="node"><title>ClMoveBaseZ_2</title>
<polygon fill="lightgrey" stroke="black" points="1906.97,-212.087 1810.97,-212.087 1810.97,-176.087 1906.97,-176.087 1906.97,-212.087"/>
<text text-anchor="middle" x="1858.97" y="-190.387" font-family="Times,serif" font-size="14.00">ClMoveBaseZ</text>
</g>
<!-- entry_2&#45;&gt;ClMoveBaseZ_2 -->
<!-- helpernode_2_0_0 -->
<!-- ClMoveBaseZ_2&#45;&gt;helpernode_2_0_0 -->
<!-- exit_orthogonal_node2 -->
<!-- helpernode_2_0_0&#45;&gt;exit_orthogonal_node2 -->
<!-- children_block_id2 -->
<!-- exit_orthogonal_node2&#45;&gt;children_block_id2 -->
<!-- statereactor_block_id2 -->
<!-- statereactor_block_id2&#45;&gt;Ev2_sm_viewer_sim::St3_2 -->
<!-- entry_3 -->
<g id="node31" class="node"><title>entry_3</title>
<ellipse fill="black" stroke="black" cx="2526.24" cy="-154.087" rx="2" ry="2"/>
</g>
<!-- Ev2_sm_viewer_sim::St3_2&#45;&gt;entry_3 -->
<g id="edge32" class="edge"><title>Ev2_sm_viewer_sim::St3_2:e&#45;&gt;entry_3:w</title>
<path fill="none" stroke="#22aa22" stroke-width="2" d="M2482.24,-139.087C2497.7,-139.087 2502.24,-148.612 2513.26,-152.482"/>
<polygon fill="#22aa22" stroke="#22aa22" stroke-width="2" points="2512.81,-155.955 2523.24,-154.087 2513.92,-149.044 2512.81,-155.955"/>
</g>
<!-- EvFail_sm_viewer_sim::MsRecoveryMode_2&#45;&gt;entry_4 -->
<g id="edge34" class="edge"><title>EvFail_sm_viewer_sim::MsRecoveryMode_2:e&#45;&gt;entry_4:w</title>
<path fill="none" stroke="#ff4444" stroke-width="2" d="M2472.24,-189.087C2492.61,-189.087 2508.18,-278.466 2387.24,-207.087 2345.27,-182.315 2371.44,-142.58 2334.24,-111.087 2296.48,-79.1143 2277.92,-82.9434 2229.24,-74.0871 2177.49,-64.6726 1808.55,-65.2673 1755.97,-64.0871 1344.42,-54.8502 1241.64,-46.9763 830.013,-42.0871 802.575,-41.7612 789.901,-25.2001 768.273,-42.0871 740.83,-63.5141 775.547,-95.2418 749.273,-118.087 726.201,-138.148 232.266,-171.756 202,-176.087 132.702,-186.005 99.1398,-157.375 47,-204.087 15.5785,-232.237 53.8083,-269.853 20,-295.087 19.911,-295.154 19.8233,-295.215 19.7367,-295.272"/>
<polygon fill="#ff4444" stroke="#ff4444" stroke-width="2" points="25.5466,-294.098 15,-293.087 22.6143,-300.454 25.5466,-294.098"/>
</g>
<!-- cluster_transition_block_exit_2 -->
<!-- children_end_block_id2 -->
<!-- children_end_block_id2&#45;&gt;statereactor_block_id2 -->
<!-- unknown_source_3 -->
<g id="node30" class="node"><title>unknown_source_3</title>
<path fill="#88aaff" stroke="#88aaff" d="M3082.51,-184.087C3082.51,-184.087 3036.51,-184.087 3036.51,-184.087 3030.51,-184.087 3024.51,-178.087 3024.51,-172.087 3024.51,-172.087 3024.51,-158.087 3024.51,-158.087 3024.51,-152.087 3030.51,-146.087 3036.51,-146.087 3036.51,-146.087 3082.51,-146.087 3082.51,-146.087 3088.51,-146.087 3094.51,-152.087 3094.51,-158.087 3094.51,-158.087 3094.51,-172.087 3094.51,-172.087 3094.51,-178.087 3088.51,-184.087 3082.51,-184.087"/>
<text text-anchor="middle" x="3059.51" y="-168.887" font-family="Times,serif" font-size="14.00">Unknown</text>
<text text-anchor="middle" x="3059.51" y="-153.887" font-family="Times,serif" font-size="14.00">Source</text>
</g>
<!-- Ev3_sm_viewer_sim::St1_3 -->
<g id="node36" class="node"><title>Ev3_sm_viewer_sim::St1_3</title>
<path fill="#99ff99" stroke="black" d="M3229.51,-139.087C3229.51,-139.087 3149.51,-139.087 3149.51,-139.087 3143.51,-139.087 3137.51,-133.087 3137.51,-127.087 3137.51,-127.087 3137.51,-115.087 3137.51,-115.087 3137.51,-109.087 3143.51,-103.087 3149.51,-103.087 3149.51,-103.087 3229.51,-103.087 3229.51,-103.087 3235.51,-103.087 3241.51,-109.087 3241.51,-115.087 3241.51,-115.087 3241.51,-127.087 3241.51,-127.087 3241.51,-133.087 3235.51,-139.087 3229.51,-139.087"/>
<text text-anchor="middle" x="3189.51" y="-116.087" font-family="Times,serif" font-size="20.00">SUCCESS</text>
</g>
<!-- unknown_source_3&#45;&gt;Ev3_sm_viewer_sim::St1_3 -->
<g id="edge39" class="edge"><title>unknown_source_3:e&#45;&gt;Ev3_sm_viewer_sim::St1_3:w</title>
<path fill="none" stroke="#22aa22" stroke-width="2" d="M3094.51,-165.087C3117.53,-165.087 3112.2,-133.18 3126.8,-123.708"/>
<polygon fill="#22aa22" stroke="#22aa22" stroke-width="2" points="3127.77,-127.072 3136.51,-121.087 3125.95,-120.314 3127.77,-127.072"/>
<text text-anchor="middle" x="3104.49" y="-131.956" font-family="Times,serif" font-size="14.00">Ev3</text>
</g>
<!-- EvFail_sm_viewer_sim::MsRecoveryMode_3 -->
<g id="node37" class="node"><title>EvFail_sm_viewer_sim::MsRecoveryMode_3</title>
<path fill="#ff9999" stroke="black" d="M3219.51,-189.087C3219.51,-189.087 3159.51,-189.087 3159.51,-189.087 3153.51,-189.087 3147.51,-183.087 3147.51,-177.087 3147.51,-177.087 3147.51,-165.087 3147.51,-165.087 3147.51,-159.087 3153.51,-153.087 3159.51,-153.087 3159.51,-153.087 3219.51,-153.087 3219.51,-153.087 3225.51,-153.087 3231.51,-159.087 3231.51,-165.087 3231.51,-165.087 3231.51,-177.087 3231.51,-177.087 3231.51,-183.087 3225.51,-189.087 3219.51,-189.087"/>
<text text-anchor="middle" x="3189.51" y="-166.087" font-family="Times,serif" font-size="20.00">ABORT</text>
</g>
<!-- unknown_source_3&#45;&gt;EvFail_sm_viewer_sim::MsRecoveryMode_3 -->
<g id="edge41" class="edge"><title>unknown_source_3:e&#45;&gt;EvFail_sm_viewer_sim::MsRecoveryMode_3:w</title>
<path fill="none" stroke="#ff4444" stroke-width="2" d="M3094.51,-165.087C3113.96,-165.087 3120.97,-169.28 3136.34,-170.656"/>
<polygon fill="#ff4444" stroke="#ff4444" stroke-width="2" points="3136.37,-174.16 3146.51,-171.087 3136.67,-167.166 3136.37,-174.16"/>
<text text-anchor="middle" x="3138.86" y="-156.854" font-family="Times,serif" font-size="14.00">EvFail</text>
</g>
<!-- ClMoveBaseZ_3 -->
<g id="node32" class="node"><title>ClMoveBaseZ_3</title>
<polygon fill="lightgrey" stroke="black" points="2667.24,-202.087 2571.24,-202.087 2571.24,-166.087 2667.24,-166.087 2667.24,-202.087"/>
<text text-anchor="middle" x="2619.24" y="-180.387" font-family="Times,serif" font-size="14.00">ClMoveBaseZ</text>
</g>
<!-- entry_3&#45;&gt;ClMoveBaseZ_3 -->
<!-- helpernode_3_0_0 -->
<!-- ClMoveBaseZ_3&#45;&gt;helpernode_3_0_0 -->
<!-- exit_orthogonal_node3 -->
<!-- helpernode_3_0_0&#45;&gt;exit_orthogonal_node3 -->
<!-- children_block_id3 -->
<!-- exit_orthogonal_node3&#45;&gt;children_block_id3 -->
<!-- statereactor_block_id3 -->
<!-- statereactor_block_id3&#45;&gt;Ev3_sm_viewer_sim::St1_3 -->
<!-- Ev3_sm_viewer_sim::St1_3&#45;&gt;entry_1 -->
<g id="edge38" class="edge"><title>Ev3_sm_viewer_sim::St1_3:e&#45;&gt;entry_1:w</title>
<path fill="none" stroke="#22aa22" stroke-width="2" d="M3242.51,-121.087C3250.53,-121.087 3247.16,-133.402 3241.51,-139.087 3223.94,-156.781 3149.82,-131.614 3129.51,-146.087 3096.58,-169.561 3124.25,-202.679 3094.51,-230.087 3058.44,-263.328 3037.58,-254.308 2989.51,-264.087 2688.15,-325.401 2607.78,-325.087 2300.24,-325.087 1857.97,-325.087 1857.97,-325.087 1857.97,-325.087 1491.13,-325.087 1344.43,-462.636 1034.69,-266.087 1014.38,-253.196 985.842,-222.566 993.132,-212.417"/>
<polygon fill="#22aa22" stroke="#22aa22" stroke-width="2" points="994.402,-215.681 1002.69,-209.087 992.099,-209.071 994.402,-215.681"/>
</g>
<!-- children_end_block_id0 -->
<!-- EvFail_sm_viewer_sim::MsRecoveryMode_3&#45;&gt;children_end_block_id0 -->
<!-- EvFail_sm_viewer_sim::MsRecoveryMode_3&#45;&gt;entry_4 -->
<g id="edge40" class="edge"><title>EvFail_sm_viewer_sim::MsRecoveryMode_3:e&#45;&gt;entry_4:w</title>
<path fill="none" stroke="#ff4444" stroke-width="2" d="M3232.51,-171.087C3254.53,-171.087 3276.14,-260.466 3147.51,-189.087 3108.59,-167.485 3130.07,-130.88 3094.51,-104.087 3055.75,-74.8783 3037.51,-81.2858 2989.51,-74.0871 2040.17,68.2977 1789.93,-41.4209 830.013,-32.0871 802.574,-31.8203 790.712,-16.2937 768.273,-32.0871 747.81,-46.4896 768.788,-69.4242 749.273,-85.0871 687.932,-134.319 105.155,-121.129 47,-174.087 6.26022,-211.186 62.9957,-260.628 20,-295.087 19.9133,-295.157 19.8277,-295.221 19.7428,-295.28"/>
<polygon fill="#ff4444" stroke="#ff4444" stroke-width="2" points="25.5456,-294.107 15,-293.087 22.6078,-300.461 25.5456,-294.107"/>
</g>
<!-- cluster_transition_block_exit_3 -->
<!-- children_end_block_id3 -->
<!-- children_end_block_id3&#45;&gt;statereactor_block_id3 -->
<!-- children_end_block_id0&#45;&gt;statereactor_block_id0 -->
<!-- children_end_block_id0&#45;&gt;cluster_transition_block_exit_0 -->
<!-- initial_sm_node -->
<g id="node42" class="node"><title>initial_sm_node</title>
<ellipse fill="black" stroke="black" cx="681.273" cy="-64.0871" rx="14.5" ry="14.5"/>
</g>
<!-- initial_sm_node&#45;&gt;entry_0 -->
<g id="edge19" class="edge"><title>initial_sm_node&#45;&gt;entry_0</title>
<path fill="none" stroke="black" d="M696.024,-64.0871C711.134,-64.0871 736.182,-64.0871 758.148,-64.0871"/>
<polygon fill="black" stroke="black" points="758.302,-67.5872 768.302,-64.0871 758.302,-60.5872 758.302,-67.5872"/>
</g>
<!-- unknown_source_4 -->
<g id="node43" class="node"><title>unknown_source_4</title>
<path fill="#88aaff" stroke="#88aaff" d="M574.273,-270.087C574.273,-270.087 528.273,-270.087 528.273,-270.087 522.273,-270.087 516.273,-264.087 516.273,-258.087 516.273,-258.087 516.273,-244.087 516.273,-244.087 516.273,-238.087 522.273,-232.087 528.273,-232.087 528.273,-232.087 574.273,-232.087 574.273,-232.087 580.273,-232.087 586.273,-238.087 586.273,-244.087 586.273,-244.087 586.273,-258.087 586.273,-258.087 586.273,-264.087 580.273,-270.087 574.273,-270.087"/>
<text text-anchor="middle" x="551.273" y="-254.887" font-family="Times,serif" font-size="14.00">Unknown</text>
<text text-anchor="middle" x="551.273" y="-239.887" font-family="Times,serif" font-size="14.00">Source</text>
</g>
<!-- EvToDeep_sm_viewer_sim::MsRunMode_4 -->
<g id="node49" class="node"><title>EvToDeep_sm_viewer_sim::MsRunMode_4</title>
<path fill="#99ff99" stroke="black" d="M721.273,-251.087C721.273,-251.087 641.273,-251.087 641.273,-251.087 635.273,-251.087 629.273,-245.087 629.273,-239.087 629.273,-239.087 629.273,-227.087 629.273,-227.087 629.273,-221.087 635.273,-215.087 641.273,-215.087 641.273,-215.087 721.273,-215.087 721.273,-215.087 727.273,-215.087 733.273,-221.087 733.273,-227.087 733.273,-227.087 733.273,-239.087 733.273,-239.087 733.273,-245.087 727.273,-251.087 721.273,-251.087"/>
<text text-anchor="middle" x="681.273" y="-228.087" font-family="Times,serif" font-size="20.00">SUCCESS</text>
</g>
<!-- unknown_source_4&#45;&gt;EvToDeep_sm_viewer_sim::MsRunMode_4 -->
<g id="edge45" class="edge"><title>unknown_source_4:e&#45;&gt;EvToDeep_sm_viewer_sim::MsRunMode_4:w</title>
<path fill="none" stroke="#22aa22" stroke-width="2" d="M586.273,-251.087C602.615,-251.087 606.702,-239.432 618.257,-234.879"/>
<polygon fill="#22aa22" stroke="#22aa22" stroke-width="2" points="619.046,-238.293 628.273,-233.087 617.813,-231.403 619.046,-238.293"/>
<text text-anchor="middle" x="636.459" y="-246.147" font-family="Times,serif" font-size="14.00">EvToDeep</text>
</g>
<!-- ClMoveBaseZ_4 -->
<g id="node45" class="node"><title>ClMoveBaseZ_4</title>
<polygon fill="lightgrey" stroke="black" points="159,-311.087 63,-311.087 63,-275.087 159,-275.087 159,-311.087"/>
<text text-anchor="middle" x="111" y="-289.387" font-family="Times,serif" font-size="14.00">ClMoveBaseZ</text>
</g>
<!-- entry_4&#45;&gt;ClMoveBaseZ_4 -->
<!-- helpernode_4_0_0 -->
<!-- ClMoveBaseZ_4&#45;&gt;helpernode_4_0_0 -->
<!-- exit_orthogonal_node4 -->
<!-- helpernode_4_0_0&#45;&gt;exit_orthogonal_node4 -->
<!-- children_block_id4 -->
<!-- exit_orthogonal_node4&#45;&gt;children_block_id4 -->
<!-- statereactor_block_id4 -->
<!-- statereactor_block_id4&#45;&gt;EvToDeep_sm_viewer_sim::MsRunMode_4 -->
<!-- EvToDeep_sm_viewer_sim::MsRunMode_4&#45;&gt;history_state_0 -->
<g id="edge44" class="edge"><title>EvToDeep_sm_viewer_sim::MsRunMode_4:e&#45;&gt;history_state_0:w</title>
<path fill="none" stroke="#22aa22" stroke-width="2" d="M734.273,-233.087C748.464,-233.087 754.34,-233.087 764.893,-233.087"/>
<polygon fill="#22aa22" stroke="#22aa22" stroke-width="2" points="765.143,-236.587 775.143,-233.087 765.143,-229.587 765.143,-236.587"/>
</g>
<!-- cluster_transition_block_exit_4 -->
<!-- children_end_block_id4 -->
<!-- children_end_block_id4&#45;&gt;statereactor_block_id4 -->
</g>
</svg>
