<?xml version="1.0" encoding="UTF-8" standalone="no"?>
<!DOCTYPE svg PUBLIC "-//W3C//DTD SVG 1.1//EN"
 "http://www.w3.org/Graphics/SVG/1.1/DTD/svg11.dtd">
<!-- Generated by graphviz version 2.40.1 (20161225.0304)
 -->
<!-- Title: %3 Pages: 1 -->
<svg width="1661pt" height="314pt"
 viewBox="0.00 0.00 1661.24 314.27" xmlns="http://www.w3.org/2000/svg" xmlns:xlink="http://www.w3.org/1999/xlink">
<g id="graph0" class="graph" transform="scale(1 1) rotate(0) translate(4 310.2726)">
<title>%3</title>
<polygon fill="#ffffff" stroke="transparent" points="-4,4 -4,-310.2726 1657.2356,-310.2726 1657.2356,4 -4,4"/>
<g id="clust1" class="cluster">
<title>cluster_0</title>
<path fill="#ffffff" stroke="#000000" d="M76,-9.2726C76,-9.2726 884.9627,-9.2726 884.9627,-9.2726 890.9627,-9.2726 896.9627,-15.2726 896.9627,-21.2726 896.9627,-21.2726 896.9627,-286.2726 896.9627,-286.2726 896.9627,-292.2726 890.9627,-298.2726 884.9627,-298.2726 884.9627,-298.2726 76,-298.2726 76,-298.2726 70,-298.2726 64,-292.2726 64,-286.2726 64,-286.2726 64,-21.2726 64,-21.2726 64,-15.2726 70,-9.2726 76,-9.2726"/>
<text text-anchor="middle" x="243.5" y="-266.2726" font-family="calibri" font-size="35.00" fill="#000000">StNavigateToWaypointX</text>
</g>
<g id="clust2" class="cluster">
<title>cluster_orthogonals_block_0</title>
<polygon fill="none" stroke="#ffffff" points="103,-49.2726 103,-233.2726 561.2814,-233.2726 561.2814,-49.2726 103,-49.2726"/>
</g>
<g id="clust3" class="cluster">
<title>cluster_Orthogonal_0_0</title>
<polygon fill="#ffffff" stroke="#000000" points="130.5,-145.2726 130.5,-225.2726 514.2814,-225.2726 514.2814,-145.2726 130.5,-145.2726"/>
<text text-anchor="middle" x="188" y="-206.8726" font-family="calibri" font-size="18.00" fill="#000000">OrNavigation</text>
</g>
<g id="clust4" class="cluster">
<title>cluster_Orthogonal_0_1</title>
<polygon fill="#ffffff" stroke="#000000" points="111,-57.2726 111,-137.2726 456.4366,-137.2726 456.4366,-57.2726 111,-57.2726"/>
<text text-anchor="middle" x="168" y="-118.8726" font-family="calibri" font-size="18.00" fill="#000000">OrPerception</text>
</g>
<g id="clust5" class="cluster">
<title>cluster_statereactor_block_id0</title>
<polygon fill="none" stroke="#ffffff" points="718.9627,-98.2726 718.9627,-122.2726 741.9627,-122.2726 741.9627,-98.2726 718.9627,-98.2726"/>
</g>
<g id="clust6" class="cluster">
<title>cluster_transition_block_0</title>
<polygon fill="none" stroke="#ffffff" points="768.9627,-118.2726 768.9627,-238.2726 888.9627,-238.2726 888.9627,-118.2726 768.9627,-118.2726"/>
</g>
<g id="clust7" class="cluster">
<title>cluster_children_block_id0</title>
<polygon fill="none" stroke="#ffffff" points="588.2814,-17.2726 588.2814,-201.2726 691.9627,-201.2726 691.9627,-17.2726 588.2814,-17.2726"/>
</g>
<g id="clust8" class="cluster">
<title>cluster_1</title>
<path fill="#ffffff" stroke="#000000" d="M927.9627,-19.2726C927.9627,-19.2726 1633.2356,-19.2726 1633.2356,-19.2726 1639.2356,-19.2726 1645.2356,-25.2726 1645.2356,-31.2726 1645.2356,-31.2726 1645.2356,-264.2726 1645.2356,-264.2726 1645.2356,-270.2726 1639.2356,-276.2726 1633.2356,-276.2726 1633.2356,-276.2726 927.9627,-276.2726 927.9627,-276.2726 921.9627,-276.2726 915.9627,-270.2726 915.9627,-264.2726 915.9627,-264.2726 915.9627,-31.2726 915.9627,-31.2726 915.9627,-25.2726 921.9627,-19.2726 927.9627,-19.2726"/>
<text text-anchor="middle" x="1025.4627" y="-244.2726" font-family="calibri" font-size="35.00" fill="#000000">StDetectItems</text>
</g>
<g id="clust9" class="cluster">
<title>cluster_orthogonals_block_1</title>
<polygon fill="none" stroke="#ffffff" points="954.9627,-35.2726 954.9627,-219.2726 1297.5544,-219.2726 1297.5544,-35.2726 954.9627,-35.2726"/>
</g>
<g id="clust10" class="cluster">
<title>cluster_Orthogonal_1_0</title>
<polygon fill="#ffffff" stroke="#000000" points="982.4627,-131.2726 982.4627,-211.2726 1250.5544,-211.2726 1250.5544,-131.2726 982.4627,-131.2726"/>
<text text-anchor="middle" x="1039.9627" y="-192.8726" font-family="calibri" font-size="18.00" fill="#000000">OrNavigation</text>
</g>
<g id="clust11" class="cluster">
<title>cluster_Orthogonal_1_1</title>
<polygon fill="#ffffff" stroke="#000000" points="962.9627,-43.2726 962.9627,-123.2726 1250.5544,-123.2726 1250.5544,-43.2726 962.9627,-43.2726"/>
<text text-anchor="middle" x="1019.9627" y="-104.8726" font-family="calibri" font-size="18.00" fill="#000000">OrPerception</text>
</g>
<g id="clust12" class="cluster">
<title>cluster_statereactor_block_id1</title>
<polygon fill="none" stroke="#ffffff" points="1455.2356,-58.2726 1455.2356,-82.2726 1478.2356,-82.2726 1478.2356,-58.2726 1455.2356,-58.2726"/>
</g>
<g id="clust13" class="cluster">
<title>cluster_transition_block_1</title>
<polygon fill="none" stroke="#ffffff" points="1505.2356,-27.2726 1505.2356,-97.2726 1637.2356,-97.2726 1637.2356,-27.2726 1505.2356,-27.2726"/>
</g>
<g id="clust14" class="cluster">
<title>cluster_children_block_id1</title>
<polygon fill="none" stroke="#ffffff" points="1324.5544,-27.2726 1324.5544,-211.2726 1428.2356,-211.2726 1428.2356,-27.2726 1324.5544,-27.2726"/>
</g>
<!-- entry_0 -->
<g id="node1" class="node">
<title>entry_0</title>
<ellipse fill="#000000" stroke="#000000" cx="74" cy="-83.2726" rx="2" ry="2"/>
</g>
<!-- ClMoveBaseZ_0 -->
<g id="node2" class="node">
<title>ClMoveBaseZ_0</title>
<polygon fill="#d3d3d3" stroke="#000000" points="234.5,-189.2726 138.5,-189.2726 138.5,-153.2726 234.5,-153.2726 234.5,-189.2726"/>
<text text-anchor="middle" x="186.5" y="-167.5726" font-family="Times,serif" font-size="14.00" fill="#000000">ClMoveBaseZ</text>
</g>
<!-- entry_0&#45;&gt;ClMoveBaseZ_0 -->
<!-- ClOpenCVPerception_0 -->
<g id="node4" class="node">
<title>ClOpenCVPerception_0</title>
<polygon fill="#d3d3d3" stroke="#000000" points="254,-101.2726 119,-101.2726 119,-65.2726 254,-65.2726 254,-101.2726"/>
<text text-anchor="middle" x="186.5" y="-79.5726" font-family="Times,serif" font-size="14.00" fill="#000000">ClOpenCVPerception</text>
</g>
<!-- entry_0&#45;&gt;ClOpenCVPerception_0 -->
<!-- CbNavigateNextWaypoint_0 -->
<g id="node3" class="node">
<title>CbNavigateNextWaypoint_0</title>
<ellipse fill="#d3d3d3" stroke="#000000" cx="401.6407" cy="-171.2726" rx="104.7816" ry="18"/>
<text text-anchor="middle" x="401.6407" y="-167.5726" font-family="Times,serif" font-size="14.00" fill="#000000">CbNavigateNextWaypoint</text>
</g>
<!-- ClMoveBaseZ_0&#45;&gt;CbNavigateNextWaypoint_0 -->
<!-- EvActionSucceeded_sm_ridgeback_barrel_search_1::StDetectItems_0 -->
<g id="node8" class="node">
<title>EvActionSucceeded_sm_ridgeback_barrel_search_1::StDetectItems_0</title>
<path fill="#99ff99" stroke="#000000" d="M868.9627,-180.2726C868.9627,-180.2726 788.9627,-180.2726 788.9627,-180.2726 782.9627,-180.2726 776.9627,-174.2726 776.9627,-168.2726 776.9627,-168.2726 776.9627,-156.2726 776.9627,-156.2726 776.9627,-150.2726 782.9627,-144.2726 788.9627,-144.2726 788.9627,-144.2726 868.9627,-144.2726 868.9627,-144.2726 874.9627,-144.2726 880.9627,-150.2726 880.9627,-156.2726 880.9627,-156.2726 880.9627,-168.2726 880.9627,-168.2726 880.9627,-174.2726 874.9627,-180.2726 868.9627,-180.2726"/>
<text text-anchor="middle" x="828.9627" y="-157.2726" font-family="Times,serif" font-size="20.00" fill="#000000">SUCCESS</text>
</g>
<!-- ClMoveBaseZ_0&#45;&gt;EvActionSucceeded_sm_ridgeback_barrel_search_1::StDetectItems_0 -->
<g id="edge18" class="edge">
<title>ClMoveBaseZ_0:e&#45;&gt;EvActionSucceeded_sm_ridgeback_barrel_search_1::StDetectItems_0:w</title>
<path fill="none" stroke="#22aa22" stroke-width="2" d="M234.5,-171.2726C264.4176,-171.2726 267.7889,-189.8093 297,-196.2726 407.5123,-220.7248 438.0963,-210.2726 551.2814,-210.2726 551.2814,-210.2726 551.2814,-210.2726 640.1221,-210.2726 663.3161,-210.2726 669.7178,-210.8401 691.9627,-204.2726 728.9031,-193.3666 734.1235,-167.3067 766.929,-162.9082"/>
<polygon fill="#22aa22" stroke="#22aa22" stroke-width="2" points="767.204,-166.3979 776.9627,-162.2726 766.7614,-159.4119 767.204,-166.3979"/>
<text text-anchor="middle" x="447.7818" y="-229.0726" font-family="Times,serif" font-size="14.00" fill="#000000">EvActionSucceeded</text>
<text text-anchor="middle" x="447.7818" y="-214.0726" font-family="Times,serif" font-size="14.00" fill="#000000">move_base_msgs::MoveBaseAction_</text>
</g>
<!-- EvActionAborted_sm_ridgeback_barrel_search_1::StNavigateToWaypointX_0 -->
<g id="node9" class="node">
<title>EvActionAborted_sm_ridgeback_barrel_search_1::StNavigateToWaypointX_0</title>
<path fill="#ff9999" stroke="#000000" d="M858.9627,-230.2726C858.9627,-230.2726 798.9627,-230.2726 798.9627,-230.2726 792.9627,-230.2726 786.9627,-224.2726 786.9627,-218.2726 786.9627,-218.2726 786.9627,-206.2726 786.9627,-206.2726 786.9627,-200.2726 792.9627,-194.2726 798.9627,-194.2726 798.9627,-194.2726 858.9627,-194.2726 858.9627,-194.2726 864.9627,-194.2726 870.9627,-200.2726 870.9627,-206.2726 870.9627,-206.2726 870.9627,-218.2726 870.9627,-218.2726 870.9627,-224.2726 864.9627,-230.2726 858.9627,-230.2726"/>
<text text-anchor="middle" x="828.9627" y="-207.2726" font-family="Times,serif" font-size="20.00" fill="#000000">ABORT</text>
</g>
<!-- ClMoveBaseZ_0&#45;&gt;EvActionAborted_sm_ridgeback_barrel_search_1::StNavigateToWaypointX_0 -->
<g id="edge20" class="edge">
<title>ClMoveBaseZ_0:e&#45;&gt;EvActionAborted_sm_ridgeback_barrel_search_1::StNavigateToWaypointX_0:w</title>
<path fill="none" stroke="#ff4444" stroke-width="2" d="M234.5,-171.2726C266.7804,-171.2726 266.1862,-198.6532 297,-208.2726 405.1493,-242.0347 437.9847,-226.2726 551.2814,-226.2726 551.2814,-226.2726 551.2814,-226.2726 640.1221,-226.2726 702.0953,-226.2726 719.5354,-213.762 776.6378,-212.3937"/>
<polygon fill="#ff4444" stroke="#ff4444" stroke-width="2" points="777.0044,-215.8897 786.9627,-212.2726 776.9223,-208.8902 777.0044,-215.8897"/>
<text text-anchor="middle" x="654.7818" y="-215.0726" font-family="Times,serif" font-size="14.00" fill="#000000">EvActionAborted</text>
<text text-anchor="middle" x="654.7818" y="-200.0726" font-family="Times,serif" font-size="14.00" fill="#000000">move_base_msgs::MoveBaseAction_</text>
</g>
<!-- exit_orthogonal_node0 -->
<!-- CbNavigateNextWaypoint_0&#45;&gt;exit_orthogonal_node0 -->
<!-- helpernode_0_1_0 -->
<!-- ClOpenCVPerception_0&#45;&gt;helpernode_0_1_0 -->
<!-- helpernode_0_1_0&#45;&gt;exit_orthogonal_node0 -->
<!-- children_block_id0 -->
<!-- exit_orthogonal_node0&#45;&gt;children_block_id0 -->
<!-- statereactor_block_id0 -->
<!-- statereactor_block_id0&#45;&gt;EvActionSucceeded_sm_ridgeback_barrel_search_1::StDetectItems_0 -->
<!-- entry_1 -->
<g id="node14" class="node">
<title>entry_1</title>
<ellipse fill="#000000" stroke="#000000" cx="925.9627" cy="-157.2726" rx="2" ry="2"/>
</g>
<!-- EvActionSucceeded_sm_ridgeback_barrel_search_1::StDetectItems_0&#45;&gt;entry_1 -->
<g id="edge17" class="edge">
<title>EvActionSucceeded_sm_ridgeback_barrel_search_1::StDetectItems_0:e&#45;&gt;entry_1:w</title>
<path fill="none" stroke="#22aa22" stroke-width="2" d="M880.9627,-162.2726C896.2944,-162.2726 902.2791,-159.0976 913.8136,-157.8077"/>
<polygon fill="#22aa22" stroke="#22aa22" stroke-width="2" points="914.1608,-161.2944 923.9627,-157.2726 913.7922,-154.3041 914.1608,-161.2944"/>
</g>
<!-- EvActionAborted_sm_ridgeback_barrel_search_1::StNavigateToWaypointX_0&#45;&gt;entry_0 -->
<g id="edge19" class="edge">
<title>EvActionAborted_sm_ridgeback_barrel_search_1::StNavigateToWaypointX_0:e&#45;&gt;entry_0:w</title>
<path fill="none" stroke="#ff4444" stroke-width="2" d="M870.9627,-212.2726C878.9627,-212.2726 876.4707,-224.4708 870.9627,-230.2726 800.2293,-304.7786 742.8564,-242.2726 640.1221,-242.2726 401.6407,-242.2726 401.6407,-242.2726 401.6407,-242.2726 268.7657,-242.2726 204.4501,-314.0843 103,-228.2726 80.8888,-209.5699 48.2448,-111.734 63.0342,-88.3136"/>
<polygon fill="#ff4444" stroke="#ff4444" stroke-width="2" points="64.9986,-91.2245 72,-83.2726 61.5679,-85.1228 64.9986,-91.2245"/>
</g>
<!-- cluster_transition_block_exit_0 -->
<!-- children_end_block_id0 -->
<!-- children_end_block_id0&#45;&gt;statereactor_block_id0 -->
<!-- initial_sm_node -->
<g id="node13" class="node">
<title>initial_sm_node</title>
<ellipse fill="#000000" stroke="#000000" cx="14.5" cy="-83.2726" rx="14.5" ry="14.5"/>
</g>
<!-- initial_sm_node&#45;&gt;entry_0 -->
<g id="edge7" class="edge">
<title>initial_sm_node&#45;&gt;entry_0</title>
<path fill="none" stroke="#000000" d="M29.2079,-83.2726C39.1254,-83.2726 52.0694,-83.2726 61.4908,-83.2726"/>
<polygon fill="#000000" stroke="#000000" points="54.0001,-86.773 64,-83.2726 53.9999,-79.773 54.0001,-86.773"/>
</g>
<!-- ClMoveBaseZ_1 -->
<g id="node15" class="node">
<title>ClMoveBaseZ_1</title>
<polygon fill="#d3d3d3" stroke="#000000" points="1086.4627,-175.2726 990.4627,-175.2726 990.4627,-139.2726 1086.4627,-139.2726 1086.4627,-175.2726"/>
<text text-anchor="middle" x="1038.4627" y="-153.5726" font-family="Times,serif" font-size="14.00" fill="#000000">ClMoveBaseZ</text>
</g>
<!-- entry_1&#45;&gt;ClMoveBaseZ_1 -->
<!-- ClOpenCVPerception_1 -->
<g id="node17" class="node">
<title>ClOpenCVPerception_1</title>
<polygon fill="#d3d3d3" stroke="#000000" points="1105.9627,-87.2726 970.9627,-87.2726 970.9627,-51.2726 1105.9627,-51.2726 1105.9627,-87.2726"/>
<text text-anchor="middle" x="1038.4627" y="-65.5726" font-family="Times,serif" font-size="14.00" fill="#000000">ClOpenCVPerception</text>
</g>
<!-- entry_1&#45;&gt;ClOpenCVPerception_1 -->
<!-- helpernode_1_0_0 -->
<!-- ClMoveBaseZ_1&#45;&gt;helpernode_1_0_0 -->
<!-- exit_orthogonal_node1 -->
<!-- helpernode_1_0_0&#45;&gt;exit_orthogonal_node1 -->
<!-- helpernode_1_1_0 -->
<!-- ClOpenCVPerception_1&#45;&gt;helpernode_1_1_0 -->
<!-- EvTopicMessage_sm_ridgeback_barrel_search_1::StNavigateToWaypointX_1 -->
<g id="node21" class="node">
<title>EvTopicMessage_sm_ridgeback_barrel_search_1::StNavigateToWaypointX_1</title>
<path fill="#99ff99" stroke="#000000" d="M1617.2356,-89.2726C1617.2356,-89.2726 1525.2356,-89.2726 1525.2356,-89.2726 1519.2356,-89.2726 1513.2356,-83.2726 1513.2356,-77.2726 1513.2356,-77.2726 1513.2356,-65.2726 1513.2356,-65.2726 1513.2356,-59.2726 1519.2356,-53.2726 1525.2356,-53.2726 1525.2356,-53.2726 1617.2356,-53.2726 1617.2356,-53.2726 1623.2356,-53.2726 1629.2356,-59.2726 1629.2356,-65.2726 1629.2356,-65.2726 1629.2356,-77.2726 1629.2356,-77.2726 1629.2356,-83.2726 1623.2356,-89.2726 1617.2356,-89.2726"/>
<text text-anchor="middle" x="1571.2356" y="-66.2726" font-family="Times,serif" font-size="20.00" fill="#000000">Transition_0</text>
</g>
<!-- ClOpenCVPerception_1&#45;&gt;EvTopicMessage_sm_ridgeback_barrel_search_1::StNavigateToWaypointX_1 -->
<g id="edge25" class="edge">
<title>ClOpenCVPerception_1:e&#45;&gt;EvTopicMessage_sm_ridgeback_barrel_search_1::StNavigateToWaypointX_1:w</title>
<path fill="none" stroke="#22aa22" stroke-width="2" d="M1105.9627,-69.2726C1173.1811,-69.2726 1095.9798,-172.9068 1148.9627,-214.2726 1197.5596,-252.2142 1225.9004,-220.2726 1287.5544,-220.2726 1287.5544,-220.2726 1287.5544,-220.2726 1376.395,-220.2726 1399.5891,-220.2726 1408.7696,-226.8837 1428.2356,-214.2726 1487.1362,-176.1138 1444.1869,-81.5518 1502.9073,-72.0463"/>
<polygon fill="#22aa22" stroke="#22aa22" stroke-width="2" points="1503.525,-75.5099 1513.2356,-71.2726 1503.0021,-68.5294 1503.525,-75.5099"/>
<text text-anchor="middle" x="1513.1383" y="-121.2199" font-family="Times,serif" font-size="14.00" fill="#000000">EvTopicMessage</text>
<text text-anchor="middle" x="1513.1383" y="-106.2199" font-family="Times,serif" font-size="14.00" fill="#000000">std_msgs::Int32_</text>
</g>
<!-- helpernode_1_1_0&#45;&gt;exit_orthogonal_node1 -->
<!-- children_block_id1 -->
<!-- exit_orthogonal_node1&#45;&gt;children_block_id1 -->
<!-- statereactor_block_id1 -->
<!-- statereactor_block_id1&#45;&gt;EvTopicMessage_sm_ridgeback_barrel_search_1::StNavigateToWaypointX_1 -->
<!-- EvTopicMessage_sm_ridgeback_barrel_search_1::StNavigateToWaypointX_1&#45;&gt;entry_0 -->
<g id="edge24" class="edge">
<title>EvTopicMessage_sm_ridgeback_barrel_search_1::StNavigateToWaypointX_1:e&#45;&gt;entry_0:w</title>
<path fill="none" stroke="#22aa22" stroke-width="2" d="M1629.2356,-71.2726C1649.357,-71.2726 1663.2399,-150.1368 1513.2356,-89.2726 1493.1399,-81.1188 1495.3288,-68.6197 1478.2356,-55.2726 1437.8558,-23.7423 1427.6268,-1.2726 1376.395,-1.2726 401.6407,-1.2726 401.6407,-1.2726 401.6407,-1.2726 266.8375,-1.2726 220.3217,12.1166 103,-54.2726 90.2042,-61.5134 91.2865,-72.2732 81.4483,-79.1018"/>
<polygon fill="#22aa22" stroke="#22aa22" stroke-width="2" points="79.7348,-76.0323 72,-83.2726 82.5618,-82.4361 79.7348,-76.0323"/>
</g>
<!-- cluster_transition_block_exit_1 -->
<!-- children_end_block_id1 -->
<!-- children_end_block_id1&#45;&gt;statereactor_block_id1 -->
</g>
</svg>
